<?xml version="1.0" encoding="UTF-8"?>
<svg width="484.7px" height="132.03567px" viewBox="0 0 484.7 132.03567" version="1.1" xmlns="http://www.w3.org/2000/svg" xmlns:xlink="http://www.w3.org/1999/xlink">
    <title>LT_byMB_Black_RGB</title>
    <g id="Design-R2" stroke="none" stroke-width="1" fill="none" fill-rule="evenodd">
        <g id="LT_byMB_Black_RGB" fill="#1C1C1C" fill-rule="nonzero">
            <g id="Group" transform="translate(-0, 0)">
                <path d="M202.9,48.0356704 L202.8,48.2356704 C201.6,49.7356704 200.4,51.2356704 199.1,52.9356704 C189.8,64.5356704 177.1,80.4356704 166.4,82.7356704 C165.5,82.9356704 164.7,82.9356704 163.6,82.9356704 C160.7,82.9356704 159.4,82.3356704 159.4,75.8356704 C159.4,69.3356704 161.3,60.4356704 163.4,56.9356704 C171.2,56.9356704 182.5,52.9356704 182.5,45.6356704 L182.5,45.5356704 C182.2,40.6356704 179.3,38.0356704 174.4,38.0356704 L174.3,38.0356704 C167.9,38.3356704 161.8,41.8356704 157,48.0356704 L153.9,48.2356704 C144.6,48.2356704 139.1,43.7356704 135.9,41.0356704 C134.3,39.7356704 133.3,38.8356704 132,38.7356704 L131.3,38.7356704 C128.4,38.7356704 126.8,41.4356704 125.8,43.7356704 C115.5,65.1356704 106.6,79.7356704 100.4,82.1356704 C100.6,74.9356704 107.1,50.7356704 109.8,44.7356704 L110.2,43.5356704 L110.2,43.1356704 C110.2,40.1356704 98.2,39.5356704 97.7,41.5356704 C97.2,42.8356704 96.2,45.4356704 95.1,48.7356704 C87.7,52.4356704 79.6,54.4356704 71.8,54.4356704 L71.6,54.4356704 C71.2,48.0356704 67.7,42.5356704 62.3,39.8356704 C62.2,39.8356704 62.2,39.7356704 62.1,39.7356704 C59.9,38.7356704 57.9,38.3356704 56.2,38.3356704 C53.9,38.3356704 51.8,39.0356704 50.3,40.3356704 C48.6,41.8356704 47.7,43.8356704 47.6,46.3356704 C47.6,46.5356704 47.6,46.7356704 47.6,46.9356704 L48,49.0356704 C42.8,57.0356704 37.6,69.6356704 37.6,78.7356704 C37.6,86.2356704 41.4,90.6356704 47.7,90.6356704 L48.7,90.6356704 L48.7,90.6356704 C48.8,90.6356704 48.9,90.6356704 49,90.6356704 C57.9,89.7356704 68.3,75.8356704 71.1,61.1356704 L71.8,61.1356704 C78.3,61.1356704 86.3,59.6356704 92.6,57.4356704 C90.8,64.1356704 89.3,71.7356704 89.3,77.7356704 C89.3,88.1356704 93.8,90.3356704 97.5,90.3356704 L98.3,90.3356704 L98.3,90.3356704 L98.4,90.3356704 C108.4,89.5356704 120.9,69.5356704 133,47.8356704 C138.2,51.9356704 145.4,54.2356704 152.9,54.3356704 C150,60.1356704 148.4,66.7356704 148.4,72.8356704 C148.4,83.8356704 154,90.3356704 163.4,90.3356704 C165.1,90.3356704 166.9,90.1356704 168.9,89.6356704 C183,86.5356704 195.1,70.4356704 203.9,58.7356704 C205.4,56.7356704 206.9,54.7356704 208.2,53.1356704 C208.8,52.1356704 204,46.9356704 202.9,48.0356704 Z M169.8,45.4356704 C171.8,44.1356704 174.2,44.6356704 175.5,45.5356704 L175.5,45.5356704 L175.6,45.6356704 L175.6,45.6356704 C175.9,46.6356704 175.4,47.6356704 174.5,48.2356704 C172.8,49.2356704 169.8,50.3356704 166.7,50.3356704 C167.4,47.9356704 168.4,46.4356704 169.6,45.6356704 C169.7,45.5356704 169.8,45.4356704 169.8,45.4356704 Z M57,49.5356704 L57,49.5356704 C57,49.0356704 57.5,47.0356704 58.9,46.8356704 C60.1,47.9356704 62.5,51.4356704 63,52.9356704 C61.6,52.3356704 58,50.4356704 57,49.5356704 Z M48.8,81.4356704 C48.8,76.1356704 49.6,65.5356704 55,56.3356704 C57.3,58.1356704 60,59.4356704 62.7,60.2356704 C60.8,67.8356704 57.2,82.1356704 49.8,83.4356704 C48.7,83.7356704 48.8,81.4356704 48.8,81.4356704 Z" id="Shape"></path>
                <polygon id="Path" points="206.1 34.4356704 224.4 34.4356704 224.4 85.2356704 235.2 85.2356704 235.2 34.4356704 253.4 34.4356704 253.4 24.4356704 206.1 24.4356704"></polygon>
                <path d="M275.2,39.4356704 L275.2,39.4356704 C274.9,39.4356704 274.5,39.4356704 274,39.4356704 C269.7,39.4356704 266.3,40.9356704 263.8,43.9356704 L263.8,40.3356704 L254.1,40.3356704 L254.1,85.2356704 L264.1,85.2356704 L264.1,60.4356704 C264.1,56.9356704 265,54.2356704 266.6,52.4356704 C268.3,50.7356704 270.8,49.8356704 274.2,49.8356704 C274.6,49.8356704 275,49.8356704 275.2,49.8356704 C275.4,49.8356704 275.6,49.8356704 275.7,49.8356704 L277.4,50.0356704 L277.4,39.7356704 L276.3,39.5356704 C275.8,39.4356704 275.5,39.4356704 275.2,39.4356704 Z" id="Path"></path>
                <path d="M321.8,77.2356704 C321.2,77.2356704 320.9,77.1356704 320.8,77.0356704 C320.8,77.0356704 320.5,76.5356704 320.5,74.4356704 L320.5,53.4356704 C320.5,48.5356704 319,44.8356704 316,42.4356704 C313.1,40.1356704 308.6,38.9356704 302.7,38.9356704 C297.1,38.9356704 292.7,40.3356704 289.4,42.9356704 C286.1,45.7356704 284.4,49.4356704 284.4,54.1356704 L284.4,55.9356704 L294,55.9356704 L294,54.4356704 C294,51.7356704 294.9,48.1356704 302.4,48.1356704 C310.4,48.1356704 310.4,51.7356704 310.4,53.1356704 C310.4,55.2356704 310.2,55.7356704 310.2,55.8356704 C310.2,55.8356704 310,56.1356704 309.3,56.4356704 C309,56.5356704 307.8,56.9356704 303.1,57.3356704 L298.1,57.9356704 C293,58.6356704 289,60.1356704 286.5,62.5356704 C283.8,64.9356704 282.5,68.3356704 282.5,72.6356704 C282.5,76.9356704 283.9,80.4356704 286.6,83.0356704 C289.2,85.5356704 293,86.7356704 297.6,86.7356704 C302.6,86.7356704 307.3,84.9356704 311.4,81.4356704 C312.2,83.8356704 314.2,86.2356704 319.5,86.2356704 C320.1,86.2356704 320.8,86.1356704 321.5,86.0356704 C322.2,85.9356704 323,85.7356704 323.9,85.5356704 L325,85.2356704 L325,76.9356704 L323.3,77.2356704 C322.3,77.2356704 321.9,77.2356704 321.8,77.2356704 Z M310.3,68.6356704 C310.3,71.1356704 309.3,73.2356704 307.2,74.8356704 C305.1,76.5356704 302.2,77.3356704 298.8,77.3356704 C296.7,77.3356704 295.1,76.9356704 294.1,76.0356704 C293.1,75.2356704 292.7,73.9356704 292.7,72.3356704 C292.7,70.7356704 293.1,69.4356704 293.9,68.6356704 C294.8,67.7356704 296.4,67.1356704 298.6,66.7356704 C299,66.6356704 299.6,66.6356704 300.2,66.5356704 C300.8,66.4356704 301.5,66.3356704 302.3,66.2356704 C305.7,65.8356704 308.4,65.2356704 310.3,64.5356704 L310.3,68.6356704 L310.3,68.6356704 Z" id="Shape"></path>
                <polygon id="Path" points="347.3 70.9356704 336.6 40.2356704 325.9 40.2356704 342.5 85.2356704 352 85.2356704 368.4 40.2356704 357.7 40.2356704"></polygon>
                <path d="M391.9,38.9356704 L391.9,38.9356704 C385.6,38.9356704 380.5,41.1356704 376.9,45.5356704 C373.3,49.8356704 371.5,55.8356704 371.5,63.2356704 C371.5,70.6356704 373.3,76.0356704 376.9,80.2356704 C380.6,84.4356704 385.6,86.6356704 391.8,86.6356704 C397.1,86.6356704 401.6,85.1356704 405.1,82.3356704 C408.7,79.4356704 410.9,75.4356704 411.7,70.5356704 L412,68.8356704 L402.1,68.8356704 L401.9,70.0356704 C401.4,72.4356704 400.4,74.2356704 398.8,75.5356704 C397.2,76.8356704 395.1,77.4356704 392.6,77.4356704 C389.2,77.4356704 386.7,76.4356704 384.8,74.3356704 C383.2,72.4356704 382.2,69.8356704 382,66.4356704 L412.1,66.4356704 L412.3,65.1356704 C412.4,64.7356704 412.4,64.2356704 412.4,63.7356704 C412.4,63.3356704 412.4,62.6356704 412.4,61.7356704 C412.4,54.6356704 410.6,49.0356704 407.1,45.0356704 C403.4,40.9356704 398.3,38.9356704 391.9,38.9356704 Z M382,57.4356704 C382.4,54.5356704 383.4,52.3356704 384.9,50.7356704 C386.6,48.9356704 389,48.0356704 392.1,48.0356704 C395.2,48.0356704 397.7,48.9356704 399.4,50.7356704 C400.8,52.3356704 401.7,54.5356704 401.9,57.4356704 L382,57.4356704 Z" id="Shape"></path>
                <rect id="Rectangle" x="422.1" y="24.4356704" width="10.1" height="60.7"></rect>
                <path d="M475.8,62.5356704 L475.8,62.5356704 C473.7,60.5356704 470.2,58.9356704 465.1,57.7356704 L458.3,56.1356704 C455.4,55.4356704 454.2,54.8356704 453.7,54.4356704 C453.1,53.9356704 452.8,53.2356704 452.8,52.3356704 C452.8,50.9356704 453.3,49.9356704 454.4,49.1356704 C455.6,48.3356704 457.5,47.9356704 460.1,47.9356704 C462.6,47.9356704 464.6,48.4356704 466,49.4356704 C467.3,50.4356704 468,51.7356704 468.1,53.5356704 L468.2,54.9356704 L477.9,54.9356704 L477.9,53.3356704 C477.9,48.9356704 476.2,45.4356704 472.9,42.8356704 C469.7,40.3356704 465.4,39.0356704 460.1,39.0356704 C454.8,39.0356704 450.7,40.2356704 447.6,42.6356704 C444.4,45.1356704 442.8,48.4356704 442.8,52.6356704 C442.8,56.3356704 443.8,59.2356704 445.8,61.2356704 C447.8,63.2356704 451,64.7356704 455.8,65.8356704 L463.7,67.8356704 C466.5,68.4356704 467.6,69.1356704 468.1,69.6356704 C468.7,70.1356704 469,70.9356704 469,72.1356704 C469,73.7356704 468.4,74.9356704 467,75.8356704 C465.5,76.8356704 463.4,77.3356704 460.6,77.3356704 C457.6,77.3356704 455.4,76.7356704 453.9,75.4356704 C452.4,74.2356704 451.6,72.4356704 451.4,69.9356704 L451.3,68.6356704 L441.7,68.6356704 L441.7,70.1356704 C441.8,75.4356704 443.4,79.5356704 446.6,82.3356704 C449.7,85.1356704 454.2,86.5356704 460,86.5356704 C465.8,86.5356704 470.4,85.2356704 473.8,82.6356704 C477.2,79.9356704 479,76.1356704 479,71.3356704 C479,67.4356704 477.9,64.5356704 475.8,62.5356704 Z" id="Path"></path>
                <path d="M79.1,99.6356704 L79.1,99.6356704 C76.2,98.5356704 72.7,97.9356704 68.5,97.9356704 C51.3,97.9356704 36,104.53567 20.6,111.93567 C12.5,115.83567 11.7,113.93567 11.7,109.73567 C11.7,77.5356704 43.6,13.7356704 48,5.63567036 C48.2,5.23567036 48.2,4.73567036 47.9,4.33567036 C46,1.53567036 37.8,-0.564329643 37.4,0.135670357 C34.8,5.03567036 31.9,10.4356704 22,33.3356704 C13.8,52.2356704 -1.42108547e-14,87.4356704 -1.42108547e-14,109.93567 C-1.42108547e-14,128.93567 14.5,123.13567 22,119.93567 C39.6,112.33567 53.3,106.13567 67.4,106.13567 C70.5,106.13567 73.3,106.63567 75.8,107.73567 C76.4,108.23567 80.5,100.13567 79.1,99.6356704 Z" id="Path"></path>
            </g>
            <g id="Group" transform="translate(138.3, 102.2357)">
                <path d="M129.5,19.7 C125.1,19.7 121.6,16.2 121.6,11.8 C121.6,7.4 125.1,3.9 129.5,3.9 C133.9,3.9 137.4,7.4 137.4,11.8 C137.4,16.2 133.9,19.7 129.5,19.7 M129.5,0 C123,0 117.7,5.3 117.7,11.8 C117.7,18.3 123,23.6 129.5,23.6 C136,23.6 141.3,18.3 141.3,11.8 C141.3,5.3 136,0 129.5,0" id="Shape"></path>
                <polygon id="Path" points="336 0.4 329.4 9.8 322.8 0.4 318.3 0.4 327.4 13.4 327.4 23.1 331.4 23.1 331.4 13.4 331.4 13.3 340.5 0.4"></polygon>
                <path d="M204.4,3.8 L211.1,3.8 C213,3.8 214.5,5.1 214.5,6.8 C214.5,8.4 213,9.8 211.1,9.8 L204.4,9.8 L204.4,3.8 Z M216.6,11.4 L216.3,11.2 L216.6,10.9 C217.7,9.8 218.3,8.3 218.3,6.8 C218.3,3.3 215.1,0.5 211.2,0.5 L200.6,0.5 L200.6,23.2 L211.9,23.2 C216.1,23.2 219.5,20.2 219.5,16.5 C219.2,14.5 218.3,12.6 216.6,11.4 M211.7,19.8 L204.4,19.8 L204.4,13.1 L211.7,13.1 C213.8,13.1 215.5,14.6 215.5,16.5 C215.4,18.3 213.7,19.8 211.7,19.8" id="Shape"></path>
                <polygon id="Path" points="285.4 15.6 278.9 0.4 274.5 0.4 284.5 23.1 286.3 23.1 296.4 0.4 292 0.4"></polygon>
                <path d="M235,19.7 C230.6,19.7 227.1,16.2 227.1,11.8 C227.1,7.4 230.6,3.9 235,3.9 C239.4,3.9 242.9,7.4 242.9,11.8 C242.9,16.2 239.4,19.7 235,19.7 M235,0 C228.5,0 223.2,5.3 223.2,11.8 C223.2,18.3 228.5,23.6 235,23.6 C241.5,23.6 246.8,18.3 246.8,11.8 C246.8,5.3 241.6,0 235,0" id="Shape"></path>
                <polygon id="Path" points="266.4 15.1 253.5 0.4 251.6 0.4 251.6 23.1 255.5 23.1 255.5 8.5 268.4 23.1 270.4 23.1 270.4 0.4 266.4 0.4"></polygon>
                <rect id="Rectangle" x="297.8" y="19.8" width="19.9" height="3.3"></rect>
                <path d="M307.7,12.5 C305.2,12.5 303.1,10.5 303.1,7.9 C303.1,5.4 305.1,3.3 307.7,3.3 C310.2,3.3 312.3,5.3 312.3,7.9 C312.3,10.4 310.2,12.5 307.7,12.5 M307.7,0 C303.3,0 299.8,3.5 299.8,7.9 C299.8,12.3 303.3,15.8 307.7,15.8 C312.1,15.8 315.6,12.3 315.6,7.9 C315.6,3.5 312.1,0 307.7,0" id="Shape"></path>
                <polygon id="Path" points="0 23.1 0 0.4 4.5 0.4 11.7 13.4 18.9 0.4 23.5 0.4 23.5 23.1 19.5 23.1 19.5 7.1 13.2 18.7 10.3 18.7 4 7.1 4 23.1"></polygon>
                <path d="M36.5,15.3 L40.1,7.5 L43.7,15.3 L36.5,15.3 Z M28.7,23.1 L32.9,23.1 L32.9,23.1 L35,18.7 L45.3,18.7 L47.4,23.1 L51.6,23.1 L51.6,23.1 L41.1,0.4 L39.2,0.4 L39.2,0.4 L28.7,23.1" id="Shape"></path>
                <path d="M60.7,3.8 L68,3.8 C70.1,3.8 71.8,5.3 71.8,7.2 C71.8,9.1 70.1,10.6 68,10.6 L60.7,10.6 L60.7,3.8 Z M69.1,13.7 C72.8,13.2 75.6,10.5 75.6,7.1 C75.6,3.4 72.2,0.4 68,0.4 L56.8,0.4 L56.8,23.1 L60.8,23.1 L60.8,13.8 L64.7,13.8 L71.1,23.1 L71.1,23.1 L75.6,23.1 L69.1,13.7 Z" id="Shape"></path>
                <path d="M86.1,3.8 L93.4,3.8 C95.5,3.8 97.2,5.3 97.2,7.2 C97.2,9.1 95.5,10.6 93.4,10.6 L86.1,10.6 L86.1,3.8 Z M94.5,13.7 C98.2,13.2 101,10.5 101,7.1 C101,3.4 97.6,0.4 93.4,0.4 L82.2,0.4 L82.2,23.1 L86.2,23.1 L86.2,13.8 L90.1,13.8 L96.5,23.1 L96.5,23.1 L101,23.1 L94.5,13.7 Z" id="Shape"></path>
                <rect id="Rectangle" x="107.6" y="0.4" width="4" height="22.7"></rect>
                <polygon id="Path" points="161.7 0.4 144.2 0.4 144.2 4.1 151 4.1 151 23.1 154.9 23.1 154.9 4.1 161.7 4.1"></polygon>
                <polygon id="Path" points="183.2 0.4 165.6 0.4 165.6 4.1 172.4 4.1 172.4 23.1 176.4 23.1 176.4 4.1 183.2 4.1"></polygon>
                <path d="M344.1,5 C343.8,5 343.5,4.9 343.2,4.8 C342.9,4.7 342.7,4.5 342.5,4.3 C342.3,4.1 342.1,3.8 342,3.6 C341.9,3.3 341.8,3 341.8,2.7 C341.8,2.4 341.9,2.1 342,1.8 C342.1,1.5 342.3,1.3 342.5,1.1 C342.7,0.9 342.9,0.7 343.2,0.6 C343.5,0.5 343.8,0.4 344.1,0.4 C344.4,0.4 344.7,0.5 345,0.6 C345.3,0.7 345.5,0.9 345.7,1.1 C345.9,1.3 346.1,1.6 346.2,1.8 C346.3,2.1 346.4,2.4 346.4,2.7 C346.4,3 346.3,3.3 346.2,3.6 C346.1,3.9 345.9,4.1 345.7,4.3 C345.5,4.5 345.2,4.7 345,4.8 C344.7,5 344.4,5 344.1,5 M344.1,4.6 C344.4,4.6 344.6,4.6 344.8,4.5 C345,4.4 345.2,4.3 345.4,4.1 C345.6,3.9 345.7,3.7 345.8,3.5 C345.9,3.3 345.9,3 345.9,2.8 C345.9,2.5 345.9,2.3 345.8,2.1 C345.7,1.9 345.6,1.7 345.4,1.5 C345.2,1.3 345,1.2 344.8,1.1 C344.6,1 344.3,1 344.1,1 C343.8,1 343.6,1 343.4,1.1 C343.2,1.2 343,1.3 342.8,1.5 C342.6,1.7 342.5,1.9 342.4,2.1 C342.3,2.3 342.3,2.6 342.3,2.8 C342.3,3.1 342.3,3.3 342.4,3.5 C342.5,3.7 342.6,3.9 342.8,4.1 C343,4.3 343.2,4.4 343.4,4.5 C343.6,4.5 343.8,4.6 344.1,4.6 M343.3,1.5 L344.2,1.5 C344.3,1.5 344.5,1.5 344.6,1.6 C344.7,1.6 344.8,1.7 344.9,1.8 C345,1.9 345,1.9 345,2 C345,2.1 345,2.2 345,2.2 C345,2.3 345,2.5 344.9,2.6 C344.8,2.7 344.7,2.8 344.6,2.9 L345.2,3.9 L344.7,3.9 L344.2,3 L343.8,3 L343.8,3.9 L343.4,3.9 L343.3,1.5 L343.3,1.5 Z M344.2,2.6 C344.3,2.6 344.4,2.6 344.5,2.5 C344.6,2.4 344.6,2.3 344.6,2.2 C344.6,2.1 344.6,2 344.5,1.9 C344.4,1.8 344.3,1.8 344.2,1.8 L343.8,1.8 L343.8,2.5 L344.2,2.5 L344.2,2.6 Z" id="Shape"></path>
            </g>
            <g id="Group" transform="translate(91.3, 102.7357)">
                <path d="M3.4,20.9 L3.4,22.6 L0,22.6 L0,0 L3.7,0 L3.7,8.3 C4.6,7.4 6.4,6.6 8.5,6.6 C12.6,6.6 16.2,9.8 16.2,14.8 C16.2,19.7 12.6,23 8.4,23 C5.9,22.9 4.4,22 3.4,20.9 Z M12.4,14.7 C12.4,11.9 10.4,10 7.9,10 C5.4,10 3.4,11.8 3.4,14.7 C3.4,17.5 5.4,19.4 7.9,19.4 C10.5,19.4 12.4,17.5 12.4,14.7 Z" id="Shape"></path>
                <polygon id="Path" points="25.2 20.6 18.8 6.9 23 6.9 27.3 16.4 31.9 6.9 35.9 6.9 24.9 29.3 20.9 29.3"></polygon>
            </g>
        </g>
    </g>
</svg>