<svg xmlns="http://www.w3.org/2000/svg" xmlns:xlink="http://www.w3.org/1999/xlink" width="75" height="75" viewBox="150 150 400 400">
<g data-name="portfolio-logo" fill="#CC5500" data="id:194" transform="translate(400.39999968989497,140.80278869374695) scale(7.007556740098927)"><path d="M18.36,16.36c0.76,0,1.36,0.56,1.36,1.32c0,0.72-0.6,1.32-1.36,1.32l-7.16,0l0,2.68l4.68,0c0.72,0,1.32,0.6,1.32,1.36c0,0.72-0.6,1.32-1.32,1.32l-6,0c-0.76,0-1.36-0.6-1.36-1.32l0-5.36c0-0.76,0.6-1.32,1.36-1.32l8.48,0l0,0z M15.88,27.04c0.72,0,1.32,0.6,1.32,1.32c0,0.76-0.6,1.36-1.32,1.36l-4.68,0l0,9.36c0,0.72-0.6,1.32-1.32,1.32c-0.76,0-1.36-0.6-1.36-1.32l0-10.72c0-0.72,0.6-1.32,1.36-1.32l6,0l0,0z M5.84,39.08c0,0.72-0.6,1.32-1.32,1.32c-0.76,0-1.32-0.6-1.32-1.32l0-26.76c0-0.72,0.56-1.32,1.32-1.32l13.84,0c0.76,0,1.36,0.6,1.36,1.32c0,0.76-0.6,1.36-1.36,1.36l-12.52,0l0,25.4l0,0z"/></g></svg>