<svg version="1.1" width="100px" height="100px" viewBox="0 0 100.0 100.0" xmlns="http://www.w3.org/2000/svg" xmlns:xlink="http://www.w3.org/1999/xlink"><defs><clipPath id="i0"><path d="M4.93521831,2.25733382e-05 L5.13637625,0.00228691097 C6.96910803,0.02683044 9.19547713,0.315898671 11.0927545,0.774044546 L11.5336647,0.880399839 L11.3854825,1.30763905 C9.98547908,5.34004997 7.89638303,11.1032342 6.5481979,14.7511298 L6.44728857,15.0238357 L6.15637876,15.0201996 C5.65001388,15.0129275 5.14910356,14.99202 4.65910235,14.9602043 L4.37091983,14.9420239 L4.29091963,14.6638639 C3.72311765,12.687802 2.67514137,9.2475563 1.61216007,5.80040753 L1.30844466,4.8165789 C0.904017924,3.50791388 0.50384288,2.21838871 0.133636692,1.02857003 L0,0.598603765 L0.440910174,0.504065727 C2.28546016,0.112278282 4.11273738,-0.0195295593 5.13637625,0.00228691097 Z M5.12546714,0.824040624 C4.22455583,0.804042193 2.6781884,0.912215525 1.05454805,1.22037317 C2.4254605,5.63184526 4.15273747,11.234133 5.00001228,14.15754 C5.2891039,14.1729934 5.58274099,14.1848106 5.87819626,14.1929918 C7.17819945,10.6696318 9.10002235,5.36550252 10.4582075,1.47126258 C8.72093051,1.08583827 6.76001661,0.846766114 5.12546714,0.824040624 Z"></path></clipPath><clipPath id="i1"><path d="M4.55182936,0 L4.69364789,0.446328621 C5.74365047,3.75061485 7.30274521,8.66568379 8.50365725,12.4862931 L8.72365779,13.1826022 L8.01365605,13.0089794 C2.9954619,11.7727128 0,9.09201398 0,5.83863285 C0,3.37518975 1.38909432,1.47715684 4.12728287,0.198166272 L4.55182936,0 Z M4.05455541,1.15081881 C1.9090956,2.27345801 0.822729294,3.84787994 0.822729294,5.83863285 C0.822729294,8.53933007 3.3009172,10.8191512 7.49547296,12.0208751 C6.38637932,8.49660615 5.03273964,4.22966817 4.05455541,1.15081881 Z"></path></clipPath><clipPath id="i2"><path d="M31.5528048,0 L31.554623,2.12528781 C31.506441,2.49889486 31.1582584,2.49889486 30.8791668,2.49889486 C28.1737056,2.49889486 27.777341,3.5906274 27.1800668,5.24413404 L27.1227939,5.40230345 C27.0564301,5.58683443 26.9746117,5.81499834 26.8237023,6.27405324 C26.7446112,6.52403363 26.6209745,6.89127754 26.4609741,7.35215048 C27.6173406,7.75757322 28.4846154,8.13208929 28.9864348,8.3693434 L29.0537077,8.19481164 C29.5427998,7.10671519 30.3228018,6.587665 31.4455318,6.587665 L32.0791697,6.61675363 L31.9864422,9.17200771 L31.986846,9.55689728 C31.9906666,11.5073555 32.0203998,14.6735833 32.0242204,15.0740103 L32.0246241,15.1160868 L32.0291696,15.5305998 L29.5009816,15.5360539 L29.4327996,15.2069888 C28.8818891,12.5571967 27.0882484,11.4872806 25.2927894,10.623712 L24.6327878,12.4535684 C23.5755125,15.3769755 22.2764184,18.973057 21.1618702,22.174624 C21.4764164,22.1391722 21.784599,22.0982663 22.0845997,22.0491793 C26.060064,21.4019573 29.1627989,20.2138687 31.3073496,18.5176382 L32.0437151,17.9358656 L31.9728058,18.8712468 C31.8600783,20.3329503 30.3200745,23.0336475 26.5373379,24.4826247 C24.2964233,25.3425573 22.0318723,25.9116035 19.803685,26.1743102 C19.3564112,27.5378396 19.0245922,28.6204819 18.817319,29.3958756 C18.5300455,30.4594286 18.5118637,30.7303164 18.5118637,30.7412246 L18.4936818,31.0466552 L18.1945902,31.129376 C18.1591355,31.1375572 17.3391335,31.3284513 16.7773139,31.3284513 C16.2691309,31.3284513 15.1191281,31.3093619 15.1191281,31.3093619 L14.7791272,31.3039078 L14.7209453,30.9684795 C14.7191271,30.9584803 14.5382175,29.9367423 13.9127615,27.7523682 C13.830034,27.464209 13.6591245,26.8987988 13.4218512,26.1352224 C4.61001132,25.0743965 0,20.1593275 0,15.8078507 C0,11.9317912 2.56273357,8.93929869 7.41910913,7.13853087 L7.24092688,6.5785748 C7.24092688,6.57675676 7.16365396,6.36677324 7.00728994,5.86681246 C6.28637908,3.92878269 5.7663778,2.53252859 3.22546247,2.53252859 L2.27273286,2.50434898 L2.27273286,0 L14.4182172,0.00727215675 L14.4182172,2.36254193 L13.6600336,2.42708232 C12.3873032,2.47889643 11.5909376,2.71615055 11.2773004,3.13066348 C10.9672997,3.5397223 11.1163909,4.1660368 11.2745732,4.8296211 L11.2863914,4.87779914 C11.3009369,4.92779522 11.3818461,5.18595678 11.5145737,5.61046894 L11.6391195,6.00589246 C13.7545792,5.62137717 15.5345836,5.53774737 16.6791319,5.53683835 C18.7164096,5.53683835 20.9018695,5.8177254 23.1800569,6.37495441 C23.3618756,5.8222705 23.4973304,5.38412306 23.5773306,5.09687286 C23.8009676,4.13785719 23.8882405,3.40609642 23.5791488,3.00794584 C23.2836936,2.62888467 22.5282372,2.43253643 21.2655068,2.40890192 L20.4464139,2.40435683 L20.4200502,0 L31.5528048,0 Z M30.7300755,0.821753713 L21.2500522,0.821753713 L21.2764159,1.58623919 C22.8500561,1.61714586 23.7582402,1.89985095 24.2273322,2.50343996 C24.7391517,3.16066113 24.663697,4.06059053 24.3746053,5.29867521 C24.2709687,5.67228227 24.0873319,6.25314579 23.8400586,6.9958148 L23.7191492,7.35942263 L23.3482392,7.2648846 C21.0018698,6.66402265 18.7582279,6.35859206 16.6791319,6.35859206 C15.5054926,6.35950108 13.6436699,6.45040304 11.4327554,6.88127833 L11.0727545,6.95127284 L10.7300264,5.85681325 C10.6964505,5.74942773 10.6673515,5.65636028 10.6421323,5.57554669 L10.5528205,5.28763231 C10.4931302,5.09284624 10.4811921,5.04458067 10.4788045,5.01072582 L10.4782076,4.98597247 C10.2891162,4.23875837 10.0782066,3.35246426 10.6218443,2.63433878 C11.1027545,1.99984311 12.0473023,1.67168703 13.596397,1.60714664 L13.596397,0.82902587 L3.09455306,0.821753713 L3.09455306,1.70622978 L3.23728068,1.71077488 C6.33819739,1.71077488 7.03638092,3.58699132 7.77547365,5.57410815 C7.94456497,6.10497559 8.01638333,6.30223285 8.01820152,6.309505 L8.4445662,7.64758185 L8.06729255,7.77938969 C4.76182988,8.93657163 0.821820201,11.2682069 0.821820201,15.8078507 C0.821820201,19.7393605 5.36455863,24.4189934 13.7809429,25.3480114 L14.0491254,25.378009 L14.1291256,25.6352616 C14.4082172,26.5388271 14.6118541,27.2051384 14.7027634,27.5260223 C15.1427645,29.0613564 15.3654923,30.0258262 15.4645834,30.4930623 C15.840948,30.4985164 16.446404,30.5066976 16.7773139,30.5066976 C17.0527692,30.5066976 17.450952,30.4421572 17.734589,30.386707 C17.7782255,30.153089 17.8618621,29.7785729 18.0227715,29.182256 C18.2473176,28.345049 18.6109548,27.1624145 19.1045924,25.6670773 L19.188229,25.4152788 L19.451866,25.3861902 C21.6945987,25.146209 23.9791498,24.5835259 26.2427917,23.7145032 C28.8227981,22.7263989 30.2591652,21.110162 30.8437121,19.8593511 C28.6673432,21.2737856 25.7727906,22.2809793 22.2173273,22.8600248 C21.6982351,22.9454726 21.1545974,23.010013 20.5973233,23.056373 L19.96914,23.1072781 L20.174595,22.5109612 C21.3345979,19.158497 22.7346013,15.2869825 23.8591495,12.1744994 L24.8173337,9.52016221 L25.2173347,9.68742182 C25.3582441,9.74832613 25.493699,9.8074124 25.6227902,9.87013475 C27.0437028,10.5518994 29.3873449,11.6763567 30.1618923,14.7115731 L31.1982585,14.7106641 C31.1882584,13.6452931 31.1637129,10.7827904 31.1637129,9.15655437 L31.2264403,7.41759989 C30.5637114,7.47214106 30.1291649,7.80666027 29.8118914,8.51115046 L29.4209814,9.52379829 L29.0082531,9.29836143 C28.7391615,9.14928222 27.5709768,8.59296222 25.8046088,7.99573635 L25.4109715,7.86120145 L25.5491537,7.46941401 C25.7718815,6.83400931 25.9418819,6.33859363 26.0427912,6.02134579 C26.1991553,5.54411051 26.2818827,5.30958345 26.3364283,5.15959522 L26.4064285,4.96506502 C27.0091573,3.29883211 27.5791587,1.72622821 30.7300755,1.67714115 L30.7300755,0.821753713 Z"></path></clipPath><clipPath id="i3"><path d="M4.95712986,0.000537417941 L5.01128403,0.0039083656 L5.35673942,0.070266796 C5.4658306,0.0911742466 5.53946715,0.19662052 5.5194671,0.30661189 L1.62218479,21.8649206 C1.60309384,21.974912 1.49672994,22.0476335 1.38763876,22.0258171 L0.159453929,21.7803818 C0.0503627517,21.7576563 -0.0196374203,21.650392 0.00490809456,21.5413096 L4.76855616,0.162077775 C4.79310168,0.0539044433 4.90219285,-0.0179081047 5.01128403,0.0039083656 Z"></path></clipPath><clipPath id="i4"><path d="M6.7937149,1.58844825e-05 L6.84754921,0.00796559751 L7.18482277,0.101594616 C7.29300485,0.130683243 7.35664137,0.242492653 7.32755039,0.349756965 L1.62208183,21.4880986 C1.59299085,21.5953629 1.48117239,21.6589943 1.3738994,21.6299057 L0.142987285,21.275388 C0.035714294,21.2435723 -0.0242858534,21.1308539 0.00935059287,21.0244986 L6.59209404,0.145227556 C6.62573048,0.0388722637 6.74027622,-0.0229410687 6.84754921,0.00796559751 Z"></path></clipPath><clipPath id="i5"><path d="M10.0963672,0.112011215 C10.1472765,0.0129280788 10.2718222,-0.0279778029 10.3718225,0.0202002356 L10.6609141,0.157462194 C10.7618234,0.204731213 10.8054599,0.325630819 10.758187,0.426531994 L1.47907334,20.2067984 C1.4318005,20.3076995 1.31089111,20.3504235 1.21089086,20.3022454 L0.110888161,19.7631968 C0.0108879155,19.7132007 -0.0291121828,19.5923011 0.0227061264,19.493218 Z"></path></clipPath><clipPath id="i6"><path d="M3.6579025,0.0011466224 L4.15244917,0.0529607393 C4.26335853,0.064777994 4.34608601,0.164770149 4.33608599,0.27567054 L2.38244482,22.0985039 C2.3724448,22.2094043 2.27426274,22.2912161 2.16335338,22.2793988 L0.1715303,22.0485079 C0.0615300301,22.0348726 -0.0148337938,21.9330624 0.00243897586,21.823071 L3.42517466,0.180223482 C3.44244743,0.0702321116 3.54699314,-0.0106706323 3.6579025,0.0011466224 Z"></path></clipPath><clipPath id="i7"><path d="M2.20108527,0 L2.20108527,20.7779034 L0,20.7779034 L0,0 L2.20108527,0 Z"></path></clipPath><clipPath id="i8"><path d="M0.416884539,0.000377722497 C1.0633816,0.00407283388 2.0046126,0.033633725 2.0046126,0.033633725 C2.11643106,0.0372698034 2.2046131,0.131807841 2.20097672,0.242708232 L1.57097518,20.5838397 C1.5673388,20.6956491 1.47370221,20.782915 1.36188375,20.7785397 L0.644609264,20.7610985 C0.532790807,20.7592805 0.440063307,20.6674695 0.437336028,20.5556601 L6.22260647e-05,0.206347448 C-0.00266505336,0.0954470574 0.0846078883,0.00272705878 0.192789972,0 Z"></path></clipPath><clipPath id="i9"><path d="M1.73498586,0 L2.30862363,0.0127872569 C2.41953299,0.0155143157 2.51044231,0.108234314 2.51044231,0.220043724 L2.47498767,22.1355971 C2.47498767,22.2464975 2.38316927,22.3364905 2.2722599,22.3346995 L0.189527513,22.2783132 C0.0777090569,22.2737681 -0.00683660532,22.1792301 0.000436139823,22.0683297 L1.51862169,0.197318235 C1.52589443,0.086417844 1.62407649,-0.00266607622 1.73498586,0 Z"></path></clipPath><clipPath id="i10"><path d="M8.57405801,0.000880610952 L8.62712212,0.0130345396 L8.89257732,0.112117675 C8.99712303,0.150296498 9.05075952,0.267560026 9.01257761,0.372097279 L1.5243774,20.9286664 C1.48619549,21.0332036 1.36983156,21.0859268 1.26619494,21.0468389 L0.126192144,20.6041464 C0.0225555262,20.5632405 -0.0274445966,20.445068 0.0152827811,20.3423487 L8.36075783,0.128480028 C8.40348521,0.0257608139 8.52257641,-0.026053303 8.62712212,0.0130345396 Z"></path></clipPath><clipPath id="i11"><path d="M11.7587977,0.0961029777 C11.8187979,0.00247395954 11.9460709,-0.0284327067 12.0415257,0.0288355278 L12.3306173,0.197913172 C12.4269812,0.253363368 12.4606176,0.377899052 12.4042539,0.474255129 L1.5024089,19.3700454 C1.44695421,19.4664015 1.32240845,19.4991262 1.22695367,19.441858 L0.0951327119,18.7546392 C-0.000322068047,18.6964619 -0.0285039555,18.5710172 0.0314961919,18.4773882 Z"></path></clipPath><clipPath id="i12"><path d="M13.3125885,0.0816156168 C13.3807704,-0.00746830344 13.5098617,-0.0265577149 13.600771,0.0388916959 L13.8689535,0.227967771 C13.9607719,0.291599143 13.9834992,0.418861886 13.9189536,0.509763846 L1.40437739,18.3347291 C1.34074087,18.42654 1.21437692,18.4474475 1.1243767,18.3819981 L0.0807377704,17.6156946 C-0.00926245073,17.5493361 -0.0265352204,17.4220734 0.0416467652,17.3338985 Z"></path></clipPath><clipPath id="i13"><path d="M14.7790438,0.0666121222 C14.8554076,-0.0151996413 14.986317,-0.0224717981 15.0708627,0.0493407499 L15.2308631,0.18296663 C15.3172269,0.254779178 15.328136,0.382041921 15.2563177,0.467489763 L1.25810147,17.0934581 C1.18628311,17.178906 1.05810098,17.1898142 0.973555315,17.1170927 L0.0671894521,16.3253366 C-0.016447117,16.251706 -0.022810769,16.1244433 0.0526439618,16.0426315 Z"></path></clipPath><clipPath id="i14"><path d="M16.0172101,0.0543860876 C16.0999376,-0.0210625387 16.230847,-0.0174264603 16.309029,0.0616582444 L16.5690297,0.320728829 C16.6481208,0.398904514 16.6481208,0.527076277 16.5690297,0.606160981 L1.18353735,15.8967796 C1.10535534,15.9758643 0.97626411,15.9749553 0.898991192,15.8949615 L0.0544436633,15.0141215 C-0.0219201607,14.9332188 -0.017374695,14.805047 0.0644436878,14.7295984 Z"></path></clipPath><clipPath id="i15"><path d="M17.2501582,0.0426567375 C17.3392493,-0.025519732 17.4692496,-0.0100663989 17.5401589,0.0753814429 L17.8010686,0.386266144 C17.8737961,0.471713986 17.8628869,0.598976729 17.7774322,0.670789277 L1.17375503,14.5506095 C1.08830028,14.621513 0.961027236,14.6096957 0.890117971,14.5233389 L0.0428431626,13.4679671 C-0.0262479162,13.3807012 -0.00988423965,13.2534385 0.0782977952,13.1861711 Z"></path></clipPath><clipPath id="i16"><path d="M18.3198281,0.0317958805 C18.4134647,-0.0272903931 18.542556,-0.00183784448 18.6061925,0.0899731345 L18.7925566,0.352679797 C18.8571022,0.443581757 18.836193,0.56993548 18.7443746,0.633566852 L1.06614939,13.025322 C0.97433098,13.0889533 0.848876126,13.0662278 0.785239606,12.9744169 L0.0334195776,11.8545047 C-0.0283987561,11.7617847 -0.00203505493,11.637249 0.0925106319,11.5772537 Z"></path></clipPath><clipPath id="i17"><path d="M19.219228,0.022796366 C19.3183191,-0.0281087313 19.4446831,0.00916107206 19.5001378,0.105517149 L19.6646836,0.387313223 C19.7219565,0.4836693 19.6892291,0.607295965 19.5928653,0.66274616 L0.938273975,11.4237201 C0.841910102,11.4800793 0.718273435,11.4455366 0.664636939,11.3482715 L0.023726274,10.1810903 C-0.0290011283,10.0829162 0.00918078372,9.96019857 0.108271936,9.90929347 Z"></path></clipPath><clipPath id="i18"><path d="M19.9457621,0.0155964383 C20.0484897,-0.0271274827 20.1712172,0.0210505558 20.2184901,0.121951731 L20.3648541,0.430109373 C20.4139451,0.530101529 20.3703086,0.651001135 20.2693993,0.697361134 L0.783896883,9.72756178 C0.682987545,9.7748308 0.56298725,9.73028884 0.5166235,9.62847865 L0.0166222713,8.50402141 C-0.0279232927,8.40130219 0.0202586439,8.28312965 0.122986169,8.24040573 Z"></path></clipPath><clipPath id="i19"><path d="M20.5095416,0.00962322052 C20.6149964,-0.0240105045 20.7331785,0.03325773 20.7713604,0.138704003 L20.8786334,0.429590273 C20.9177244,0.533218507 20.864997,0.649573015 20.7595422,0.687751838 L0.637674587,8.00990467 C0.533128876,8.04808349 0.417674047,7.99354232 0.381310321,7.88809604 L0.0104003187,6.80090861 C-0.0250543138,6.69455332 0.0331276473,6.58001685 0.139491545,6.54638312 Z"></path></clipPath><clipPath id="i20"><path d="M20.9708864,0.00500231859 C21.0790685,-0.0195412105 21.191796,0.0486352591 21.220887,0.156808591 L21.31816,0.510417213 C21.34816,0.617681525 21.2854326,0.728581916 21.1772505,0.756761523 L0.520836159,6.14815674 C0.413563168,6.17633634 0.302653805,6.11088693 0.27538101,6.0027136 L0.00538034717,4.89280068 C-0.0200742608,4.78462734 0.0471986317,4.67645401 0.156289809,4.65191048 Z"></path></clipPath><clipPath id="i21"><path d="M21.2756561,0.00154428892 C21.3856564,-0.012091005 21.4920202,0.0660846801 21.5120203,0.176076051 L21.5647477,0.467871341 C21.5856568,0.576953692 21.5129294,0.682399965 21.4029291,0.700580357 L0.425604863,4.26302815 C0.315604592,4.28120854 0.211967974,4.20666893 0.193786111,4.09667756 L0.00196745826,2.82950425 C-0.0134871252,2.71951288 0.0637857919,2.61770268 0.174695155,2.60406739 Z"></path></clipPath><clipPath id="i22"><path d="M21.3576555,0.000242410095 C21.4685649,-0.00521170747 21.5676561,0.0820541736 21.5776561,0.192954564 L21.6149289,0.594741225 C21.625838,0.705641615 21.5449287,0.803815731 21.4331103,0.812905927 L0.296694713,2.56822276 C0.18578535,2.57731296 0.0885123839,2.49368316 0.0803305456,2.38278277 L0.000330349087,1.15651533 C-0.00603330291,1.04561494 0.0803305456,0.950167886 0.191239909,0.945622788 Z"></path></clipPath><clipPath id="i23"><path d="M2.78607331,0.00566784604 C2.89425539,-0.0206937222 3.00243748,0.0474827474 3.0260739,0.156565099 L7.3206299,20.0740934 C7.34335723,20.1831758 7.27426615,20.2940762 7.16608407,20.3204377 L6.3797185,20.5240581 C6.27244551,20.5531468 6.15699068,20.4895154 6.12335423,20.3831601 L0.0106119451,0.951957244 C-0.0230245012,0.845601951 0.0260665285,0.731065482 0.118794029,0.698340777 C0.21152153,0.665616071 0.376067388,0.614710974 0.483340379,0.585622347 Z"></path></clipPath><clipPath id="i24"><path d="M2.23296556,0.00218704938 C2.34387493,-0.0141753033 2.44569336,0.0630913622 2.46114794,0.173082733 L5.21933654,20.3424095 C5.23479112,20.4524009 5.15660911,20.5569381 5.04660884,20.5733005 L4.12569749,20.7196526 C4.01569722,20.737833 3.90842422,20.6632934 3.88751508,20.5542111 L0.0038691783,0.564870178 C-0.0179490571,0.455787827 0.0547783943,0.350341554 0.164778664,0.331252142 Z"></path></clipPath><clipPath id="i25"><path d="M2.29059677,0.000333571785 C2.40150613,-0.00602956537 2.49696091,0.0794182765 2.50241547,0.190318667 L3.49241791,20.5159968 C3.49787246,20.6278062 3.41150862,20.7241623 3.30059925,20.7314344 L2.55332469,20.7850666 C2.44241533,20.7941568 2.34150599,20.711436 2.32877868,20.6005356 L0.00150023912,0.374849645 C-0.012136158,0.263949254 0.0687731317,0.165775138 0.179682495,0.155775922 Z"></path></clipPath><clipPath id="i26"><path d="M1.02154637,0.0424538382 C1.10881931,-0.0257226314 1.23609235,-0.0102692983 1.30427434,0.0779056024 L13.8452142,16.3202677 C13.9133962,16.4084426 13.8988507,16.5384324 13.813396,16.6093359 L12.9997576,17.3001908 C12.916121,17.3729124 12.7852116,17.3665493 12.7088478,17.2856465 L1.79609373,5.66383101 C1.7197299,5.58292826 1.7070026,5.44021219 1.76791184,5.34658317 L2.47882268,4.25575966 C2.53973192,4.16213064 2.53064098,4.0166875 2.45791353,3.93123966 L0.0469985199,1.08509931 C-0.0248198383,0.999651471 -0.0130016275,0.872388728 0.0733622211,0.802394219 Z"></path></clipPath><clipPath id="i27"><path d="M1.05170761,0.0544392586 C1.1326169,-0.0219183873 1.26079903,-0.0173732893 1.33625376,0.0644384742 L15.2517425,15.2059779 C15.3262881,15.2877896 15.3235609,15.4195975 15.2444697,15.4977731 L14.5426498,16.2095355 C14.4653769,16.2904382 14.3335584,16.2958923 14.2499219,16.2222618 L3.19444015,6.52756779 C3.11080358,6.45484622 3.0817126,6.31213015 3.12989453,6.21213799 L3.69535047,5.06404624 C3.74625968,4.96496311 3.72171417,4.82042899 3.64171397,4.74316233 L0.0607960854,1.28525179 C-0.0201132043,1.20798512 -0.0201132043,1.08072238 0.0598869923,1.00345571 Z"></path></clipPath><clipPath id="i28"><path d="M0.893662557,0.0668674973 C0.967299101,-0.0158532857 1.09548123,-0.0231254425 1.17729962,0.0523231838 L16.4046098,13.9494147 C16.4873372,14.0248634 16.4955191,14.1557622 16.4237007,14.24121 L15.8136992,14.981152 C15.743699,15.0675088 15.6127896,15.0847802 15.5227894,15.0193308 L4.63003537,7.07086347 C4.54003515,7.00541406 4.49821687,6.86633406 4.53730787,6.76179681 L4.96185437,5.62370428 C5.00003628,5.51916702 4.96185437,5.37554193 4.87639961,5.3046384 L0.0718423559,1.31767846 C-0.0136123995,1.24677493 -0.0245215172,1.11951219 0.0482059342,1.03497337 Z"></path></clipPath><clipPath id="i29"><path d="M0.808094645,0.0804602079 C0.875367537,-0.00862371232 1.00264058,-0.0268041042 1.09082261,0.0413723654 L17.5008629,12.6094773 C17.589045,12.6767447 17.609045,12.8067345 17.5444994,12.8976365 L17.0544982,13.6093988 C16.9926799,13.7021188 16.8635886,13.7312075 16.7681339,13.6739392 L6.501745,7.56532755 C6.40629022,7.50896833 6.34810825,7.37352441 6.37447196,7.26444206 L6.63901806,6.1854358 C6.66719995,6.07817149 6.61447254,5.93727345 6.52356323,5.8745511 L0.0853655965,1.40762882 C-0.00645281087,1.34399744 -0.0273619531,1.21764372 0.0380927531,1.12765078 Z"></path></clipPath><clipPath id="i30"><path d="M0.737342256,0.0942568422 C0.79643331,-0.000281195563 0.92097907,-0.028460803 1.01461566,0.0315344902 L18.4628403,11.2252018 C18.5564769,11.2851971 18.5873861,11.4133688 18.5319314,11.5097249 L18.1228395,12.2314865 C18.069203,12.3287516 17.9428391,12.3696574 17.8428388,12.3214794 L8.30372448,7.77638143 C8.20372423,7.72820339 8.13281497,7.59912261 8.14736046,7.48822222 L8.29190627,6.44012263 C8.30826994,6.33013126 8.24281524,6.19468734 8.14645137,6.13923714 L0.100067963,1.5350529 C0.00370408976,1.4796027 -0.0290232634,1.35597604 0.0282496046,1.26052898 Z"></path></clipPath><clipPath id="i31"><path d="M0.557083673,0.110478849 C0.607083796,0.0104866934 0.728902277,-0.0286011492 0.82799343,0.0223039481 L19.2925842,9.5770089 C19.3907663,9.627914 19.4334937,9.75244968 19.3862208,9.85335086 L19.0025835,10.7005571 C18.958038,10.8023673 18.8362195,10.8550905 18.7307647,10.8169116 L10.3089258,7.7398803 C10.2043801,7.70079246 10.1207435,7.57898383 10.1243799,7.46717442 L10.15438,6.40453052 C10.1571073,6.29363013 10.0771071,6.16364033 9.97710681,6.11546229 L0.115264406,1.46673608 C0.0143550671,1.41946706 -0.0283723106,1.29856746 0.019809626,1.19766628 Z"></path></clipPath><clipPath id="i32"><path d="M0.654687611,0.00146528849 L0.70691417,0.0152815446 L19.9987797,7.93375123 C20.1024164,7.97556613 20.1551438,8.09555672 20.1169619,8.20100299 L19.7969611,9.11638572 C19.7615064,9.22183199 19.6442334,9.28819043 19.5351422,9.26273788 L12.1905787,7.59650496 C12.0814876,7.57196143 11.9851237,7.46106104 11.9760328,7.35016065 L11.8696689,6.06480694 C11.8605779,5.95390655 11.7678504,5.83118891 11.6633047,5.79210107 L0.130549118,1.48880231 C0.0269124998,1.44971446 -0.0267239956,1.33245094 0.0132761027,1.2288227 L0.444186252,0.126181935 C0.486004537,0.0225537014 0.604186645,-0.0274423763 0.70691417,0.0152815446 Z"></path></clipPath><clipPath id="i33"><path d="M0.557758379,0.000120762447 L0.611066591,0.00934983638 L20.5683883,6.29885641 C20.6747522,6.33158111 20.7383888,6.44793562 20.7092978,6.55519993 L20.5111155,7.33604777 C20.4847518,7.4442211 20.3729333,7.52057874 20.262933,7.50512541 L14.2865547,6.67246346 C14.1765545,6.65791915 14.0692815,6.55519993 14.0492814,6.44611758 L13.869281,5.49164701 C13.8483718,5.38165564 13.7438261,5.26893721 13.635644,5.23984858 L0.148338181,1.6128604 C0.0410651905,1.58377177 -0.0225713295,1.47287138 0.00742874421,1.36560707 L0.360156883,0.142975717 C0.391975143,0.0357114046 0.504702693,-0.0242838886 0.611066591,0.00934983638 Z"></path></clipPath><clipPath id="i34"><path d="M0.417757766,0.000323344672 L0.471768841,0.00459068666 L20.9736374,4.48787533 C21.0827286,4.51150983 21.1563651,4.62059219 21.1372742,4.73058356 L21.0200011,5.46234433 C21.0027284,5.5723357 20.8981827,5.66232864 20.7872733,5.66232864 L16.2090802,5.66232864 C16.0972618,5.66232864 15.9772615,5.57597178 15.9418068,5.47052551 L15.5972605,4.43969729 C15.5618059,4.33334199 15.4436238,4.2315318 15.3336235,4.21244239 L0.164495359,1.54901498 C0.0554041822,1.52992557 -0.0173232692,1.42447929 0.00358587309,1.31448792 L0.232677345,0.160033037 C0.255404674,0.050950686 0.362677664,-0.0190438228 0.471768841,0.00459068666 Z"></path></clipPath><clipPath id="i35"><path d="M0.35370407,0.00172462054 L21.2346645,2.70333085 C21.3455738,2.71696615 21.4283013,2.81968536 21.4183013,2.93058575 L21.376483,3.47963359 C21.3692102,3.591443 21.2728464,3.69688927 21.1628461,3.71597868 L18.0437475,4.24502809 C17.9337473,4.2641175 17.8001106,4.19957711 17.745565,4.10140299 L17.2982911,3.29328457 C17.2446547,3.19601947 17.1101089,3.10784457 16.9991995,3.09784536 L0.182794559,1.60978028 C0.0718851958,1.59978107 -0.00993318703,1.50160695 0.000975930674,1.39070656 L0.130067157,0.177165402 C0.142794461,0.0662650117 0.242794707,-0.012819693 0.35370407,0.00172462054 Z"></path></clipPath><clipPath id="i36"><path d="M0.240027662,0.0003302842 L21.3346249,1.11751537 C21.4455343,1.1238785 21.5364754,1.15205811 21.5355345,1.18114674 L21.5358657,1.31875776 C21.535956,1.33169493 21.5360539,1.34202866 21.5361442,1.35005712 L21.5364754,1.37294987 C21.5382618,1.48475928 21.461898,1.62202124 21.3655341,1.67747144 L19.5937116,2.71011769 C19.4973477,2.76556789 19.3709837,2.7337522 19.3137109,2.63921417 L18.9464373,2.03835221 C18.8882553,1.94290516 18.749164,1.86472947 18.6382547,1.86472947 L0.19911847,1.80746124 C0.0882091068,1.80746124 -0.0017911143,1.71655928 0,1.60474987 L0.031845332,0.192133419 C0.0345726114,0.0803240085 0.129118298,-0.00603285296 0.240027662,0.0003302842 Z"></path></clipPath><clipPath id="i37"><path d="M1.12699467,0.0327848699 C1.21972217,-0.0281194429 1.34517703,-0.00175787469 1.40517717,0.0918711435 L12.4579316,17.3359728 C12.5179317,17.4305109 12.491568,17.5586826 12.3997496,17.621405 L11.6133841,18.1749979 C11.5233838,18.2395383 11.3933835,18.2213579 11.3242924,18.134092 L0.764266508,4.71241774 C0.696084522,4.62515186 0.697902708,4.4833448 0.769721067,4.39880598 L1.53699568,3.49251345 C1.60881404,3.4070656 1.61517769,3.26253149 1.55154117,3.17162953 L0.0360829008,1.00998093 C-0.0275536192,0.919078974 -0.00482629063,0.792725251 0.0869921167,0.730002899 Z"></path></clipPath><clipPath id="i38"><path d="M1.41508049,0.0239282765 C1.51326255,-0.0287948599 1.63508103,0.00847494342 1.68689934,0.107558079 L11.1241953,18.2461351 C11.1760136,18.3452182 11.1378317,18.4706629 11.0414678,18.5252041 L10.2260112,18.9960762 C10.1305564,19.0533445 10.0014652,19.0233468 9.94055598,18.9306268 L0.0396225694,3.91180508 C-0.0221957642,3.81908508 -0.0103775534,3.67636901 0.0659862706,3.59455724 L1.01053405,2.5764553 C1.08598878,2.49464353 1.10326155,2.34829138 1.04780686,2.25102628 L0.273259507,0.880224734 C0.218713918,0.782959638 0.253259458,0.659332973 0.350532424,0.605700817 Z"></path></clipPath><clipPath id="i39"><path d="M2.18300361,0.0166209265 C2.28482204,-0.0279210336 2.40391324,0.0202570049 2.44664062,0.122976219 L10.3202963,18.9651344 C10.3630237,19.0678536 10.3157509,19.1887532 10.2139324,19.2351132 L9.25302098,19.6823508 C9.15302073,19.7314379 9.02756588,19.690532 8.97574757,19.5923579 L0.0257255846,2.88912284 C-0.0270018176,2.79094873 0.00390734922,2.65732285 0.0948166635,2.59278246 L1.22391035,1.78011894 C1.31391057,1.71466953 1.35027429,1.57831659 1.30481964,1.47741541 L0.985727943,0.767471111 C0.939364193,0.665660917 0.985727943,0.54567033 1.08663728,0.499310331 Z"></path></clipPath><clipPath id="i40"><path d="M2.75783061,0.00996079589 C2.86419451,-0.0245819487 2.97783115,0.0335953053 3.0114676,0.139950598 L9.15875543,19.5847887 C9.19239187,19.691144 9.13330082,19.8074985 9.02784601,19.8438593 L7.98784346,20.2156483 C7.88420684,20.2538272 7.76238836,20.202013 7.71875189,20.1002028 L0.0169147874,2.11070508 C-0.0267216835,2.00798586 0.0169147874,1.88072312 0.115096847,1.82709096 L1.25146327,1.20350352 C1.34873624,1.14987137 1.39873636,1.01988157 1.36237264,0.914435292 L1.29509975,0.719905099 C1.25873602,0.614458826 1.31509979,0.498104318 1.4205546,0.461743534 Z"></path></clipPath><clipPath id="i41"><path d="M0.823665459,0.000333532491 C0.934574822,-0.00602960467 1.03275688,0.0794182372 1.04184781,0.191227647 L2.82548856,22.0286054 C2.83457949,22.1395057 2.75094292,22.2367708 2.64003356,22.244043 L0.522755629,22.3623854 C0.411846265,22.3667606 0.319118765,22.2794948 0.318209672,22.1685944 L0,0.25122294 C-0.0017911143,0.13941353 0.0882091068,0.0430574534 0.19911847,0.0366943163 Z"></path></clipPath><clipPath id="i42"><path d="M0.842796378,0.00196787106 C0.952796648,-0.013485462 1.05825145,0.0637812035 1.07734241,0.173772574 L4.83371527,21.7466256 C4.85280623,21.856617 4.77916968,21.9602452 4.66916941,21.9775166 L2.30279996,22.3120358 C2.1918906,22.3256711 2.09279945,22.2465864 2.08279942,22.135686 L0.000976127732,0.324669827 C-0.00993298998,0.213769437 0.0718853928,0.110141203 0.181885663,0.0946878697 Z"></path></clipPath><clipPath id="i43"><path d="M0.811493521,0.00577675221 C0.919675605,-0.020584816 1.03149406,0.0457736144 1.06058504,0.153946946 L6.63514419,21.3304674 C6.66423517,21.4377317 6.59878047,21.5477231 6.49059838,21.5740847 L4.12422893,22.1213145 C4.01604685,22.144949 3.91059204,22.0749545 3.89059199,21.9649631 L0.00330971767,0.399382236 C-0.0166903315,0.289390866 0.0560371199,0.180308514 0.165128297,0.155764985 Z"></path></clipPath><clipPath id="i44"><path d="M1.04170732,0.010508563 C1.14716213,-0.0249432012 1.26443514,0.0323250332 1.30261705,0.136862287 L8.71808982,20.720702 C8.75536263,20.8261483 8.69990795,20.9415937 8.59536224,20.9779545 L7.38535927,21.3870133 C7.27899537,21.4215561 7.16263145,21.3642879 7.12626772,21.2588416 C7.08808581,21.1479412 6.97535826,21.0979451 6.87353983,21.1424871 L5.56171843,21.7115333 C5.45989999,21.7560753 5.3535361,21.7042612 5.3262633,21.5960878 L0.00625023279,0.549557182 C-0.0210225615,0.441383851 0.0435230516,0.326847382 0.149886949,0.294122676 Z"></path></clipPath><clipPath id="i45"><path d="M0.823089306,0.0169632636 C0.925816831,-0.0275786965 1.04763531,0.0187813028 1.09581725,0.118773458 L10.4403857,19.8744963 C10.4876585,19.9753975 10.444022,20.0953881 10.3422036,20.1417481 L9.1885644,20.6562531 C9.08583688,20.7007951 8.96765477,20.6535261 8.92492739,20.5508069 L8.60856298,19.7935936 C8.5658356,19.6908743 8.45583533,19.6590587 8.36401692,19.72269 L7.09674108,20.6053481 C7.00583177,20.6689794 6.90128606,20.6353457 6.86492233,20.5298994 L0.0112691302,0.575101294 C-0.0250945955,0.469655022 0.0294509931,0.348755415 0.133087611,0.306940514 Z"></path></clipPath><clipPath id="i46"><path d="M0.840565303,0.0242169712 C0.938747362,-0.0285061653 1.06420222,0.00785461847 1.12056599,0.104210695 L12.0605929,18.9872747 C12.1160475,19.0836308 12.0824111,19.2072575 11.9851381,19.2617986 L10.8505899,19.8844771 C10.7524078,19.9372002 10.6333166,19.8981124 10.5860438,19.7972112 L9.91695124,18.3745955 C9.86967839,18.2736943 9.75785994,18.2455147 9.66695062,18.3109641 L8.42876576,19.2090755 C8.33876554,19.2745249 8.22876527,19.2445273 8.18331061,19.1427171 L0.0178360089,0.679620099 C-0.0276186482,0.577809904 0.0169269157,0.45327422 0.116018068,0.402369122 Z"></path></clipPath><clipPath id="i47"><path d="M0.774359257,0.0334780787 C0.867086757,-0.0274262342 0.996177984,-0.00288270511 1.0598145,0.0880192543 L13.5734816,17.9193476 C13.6371181,18.0102496 13.6143908,18.1366033 13.5225724,18.1993256 L12.484388,18.8974527 C12.3916605,18.959266 12.2671148,18.9319954 12.2089328,18.8374574 L10.9343842,16.777619 C10.8752932,16.683081 10.7598383,16.6667186 10.6771109,16.7412582 L9.64165377,17.6757304 C9.55892629,17.75027 9.44710783,17.7311806 9.39347134,17.6339155 L0.0261756006,0.748876499 C-0.0283699879,0.650702383 0.00526645837,0.52343964 0.0998121452,0.464353366 Z"></path></clipPath><clipPath id="i48"><path d="M0.800997034,0.0433627397 C0.889179069,-0.0248137299 1.01917939,-0.011178436 1.09099775,0.0742694059 L15.0473957,16.7475068 C15.1183049,16.8329546 15.1064867,16.9611264 15.0201229,17.0311209 L14.1046661,17.7701538 C14.0173931,17.8392393 13.8883019,17.824695 13.8183017,17.7383382 L11.3555684,14.7031217 C11.2855682,14.6167649 11.1719316,14.6176739 11.1028405,14.7049398 L10.2901113,15.7448582 C10.2210202,15.8330331 10.1137472,15.829397 10.0519289,15.736677 L0.0355406079,0.877842727 C-0.0271868189,0.786031748 -0.00445949036,0.656041946 0.0846316376,0.589683516 Z"></path></clipPath><clipPath id="i49"><path d="M0.73308393,0.0548185545 C0.814902313,-0.0206300718 0.944902632,-0.017903013 1.02399374,0.0611816917 L16.2731221,15.4945164 C16.3522132,15.5736011 16.350395,15.7017728 16.2703948,15.7790395 L15.4840293,16.5326167 C15.40312,16.6089744 15.2740287,16.6044293 15.198574,16.5235265 L11.7185655,12.8010913 C11.6431107,12.7201886 11.5240195,12.7247337 11.4540194,12.8110905 L10.6331083,13.8355556 C10.5631081,13.9228215 10.4494714,13.9228215 10.3794713,13.8355556 L0.0458095147,0.947475796 C-0.0241906573,0.861118935 -0.0123724464,0.729311093 0.0703550295,0.655680506 Z"></path></clipPath><clipPath id="i50"><path d="M0.620910616,0.0679454054 C0.696365347,-0.0147753776 0.82727476,-0.022956554 0.912729515,0.048855994 L17.500043,13.9623099 C17.5845887,14.0341225 17.5954978,14.1622942 17.5227703,14.246833 L16.6773137,15.2131209 C16.6036772,15.2967507 16.475495,15.3031138 16.3927675,15.2285742 L11.4691191,10.764379 C11.3863916,10.6898394 11.2782095,10.7098378 11.2291185,10.80983 L10.7227536,11.8297499 C10.6736626,11.9297421 10.570026,11.9461044 10.492753,11.8652017 L0.057272868,0.966056764 C-0.019090956,0.88606304 -0.019090956,0.754255199 0.057272868,0.673352455 Z"></path></clipPath><clipPath id="i51"><path d="M0.582096946,0.081552114 C0.650278932,-0.00662278667 0.780279251,-0.0266212177 0.871188565,0.0379191734 L18.5466865,12.4551268 C18.6375958,12.5187582 18.658505,12.6451119 18.5930503,12.7351049 L17.8985031,13.6786672 C17.8312302,13.7677511 17.7039572,13.7850225 17.6157752,13.717755 L11.1493956,8.79450492 C11.0603045,8.72723747 10.9557588,8.75723512 10.9157587,8.86177237 L10.4930304,9.97713942 C10.4539394,10.0807677 10.35303,10.1062202 10.2693935,10.0325896 L0.0711866,1.05602112 C-0.0124499691,0.982390532 -0.0242681799,0.85149171 0.045731992,0.764225829 Z"></path></clipPath><clipPath id="i52"><path d="M0.497014104,0.0972376004 C0.557014251,0.00269956258 0.684287291,-0.0282071036 0.780651164,0.0281521112 L19.4079697,10.8527574 C19.5043335,10.9091167 19.5361518,11.0327433 19.479788,11.1290994 L18.8516046,12.1599276 C18.7934227,12.2553747 18.6679678,12.2835543 18.5743312,12.22265 L10.4734022,7.02396691 C10.3797657,6.96397161 10.276129,7.00124142 10.2434017,7.10850573 L9.88158261,8.30023042 C9.84976435,8.40658571 9.7506732,8.4384014 9.66158207,8.37113395 L0.0833767238,1.09534111 C-0.00480531102,1.02807366 -0.0266235464,0.897174843 0.0351947872,0.804454845 Z"></path></clipPath><clipPath id="i53"><path d="M0.445547911,0.112928575 C0.49736622,0.0147544585 0.622821074,-0.0279694624 0.723730413,0.0192995565 L20.2055965,9.07858883 C20.3065058,9.12585785 20.3492332,9.24675746 20.3010512,9.34674961 L19.7083225,10.5493825 C19.6583224,10.6493747 19.5365039,10.6893716 19.4365037,10.6402845 L9.29647875,5.58613555 C9.1964785,5.53613947 9.10193281,5.58613555 9.08647823,5.69612692 L8.97193249,6.47788377 C8.95647791,6.58787514 8.8655686,6.63059907 8.77102291,6.57151279 L0.100092517,1.17920856 C0.00554683047,1.12012229 -0.0280896158,0.991950522 0.0255468796,0.894685426 Z"></path></clipPath><clipPath id="i54"><path d="M0.573406087,0.000731236981 L0.626537531,0.0124348643 L20.7302233,7.4182175 C20.834769,7.45639632 20.8874964,7.57275083 20.8474963,7.67728808 L20.4120407,8.79356414 C20.3711315,8.89719238 20.2529494,8.94718846 20.1502219,8.90446453 L8.15473784,3.99121363 C8.05201032,3.94848971 7.96382828,4.00575794 7.95928282,4.11665833 L7.92201,5.09294538 C7.91746453,5.20384577 7.83382796,5.25293282 7.73473681,5.20111871 L0.115627185,1.20688661 C0.0165360325,1.15507249 -0.0271004383,1.02962779 0.0174451257,0.927817596 L0.359264147,0.129698392 C0.401991525,0.0269791778 0.52199182,-0.0257439587 0.626537531,0.0124348643 Z"></path></clipPath><clipPath id="i55"><path d="M0.46856694,2.79617227e-07 L0.522851586,0.00711672468 L21.1419931,5.57849782 C21.2492661,5.60758644 21.3129027,5.71848684 21.2829026,5.82575115 L20.9592654,6.94293623 C20.9274472,7.04929152 20.8138105,7.11019583 20.7074466,7.07747113 L6.90559454,2.83507668 C6.79923064,2.80235198 6.71377588,2.86689237 6.71559407,2.97779276 L6.73195775,3.95317078 C6.73377593,4.06407117 6.65286664,4.11770333 6.55104821,4.07225235 L0.130123348,1.18793318 C0.0283049162,1.1424822 -0.0244224861,1.01885553 0.0110321465,0.91431828 L0.265578226,0.147105742 C0.299214673,0.0407504497 0.414669502,-0.0219719023 0.522851586,0.00711672468 Z"></path></clipPath><clipPath id="i56"><path d="M0.375056557,0.000888665103 L0.429593728,0.00304337822 L21.3905543,3.74365901 C21.5005546,3.76365744 21.573282,3.86910371 21.5514638,3.97818606 L21.2787359,5.33807938 C21.2560085,5.44716173 21.1478264,5.51624722 21.0387353,5.49261271 L5.29687841,2.02379394 C5.18778723,1.99925041 5.10324157,2.07106296 5.10960522,2.18196335 L5.14505986,2.83554843 C5.15142351,2.94644882 5.07051422,3.00644412 4.96596851,2.96826529 L0.147774854,1.2056763 C0.0432291422,1.16749748 -0.0204073778,1.04750689 0.00595632332,0.93933356 L0.185956765,0.164848866 C0.21050228,0.0566755343 0.319593457,-0.0160460333 0.429593728,0.00304337822 Z"></path></clipPath><clipPath id="i57"><path d="M0.340746292,0.000819325755 L21.4817073,1.85431028 C21.5926167,1.86430949 21.6744351,1.96339263 21.6635259,2.073384 L21.5362529,3.25420045 C21.5235256,3.36510084 21.4226163,3.44418555 21.3117069,3.43055025 L3.76348197,1.20345225 C3.65257261,1.18981695 3.59348155,1.26344754 3.63075437,1.36889382 L3.94620969,2.24427968 C3.98348251,2.34972596 3.92802783,2.40699419 3.82166393,2.37245145 L0.163473129,1.18163578 C0.0571092312,1.14709303 -0.014709127,1.02892049 0.00256364266,0.918929116 L0.110745727,0.183532264 C0.12620031,0.0735408933 0.229836928,-0.00917988978 0.340746292,0.000819325755 Z"></path></clipPath><clipPath id="i58"><path d="M21.6023256,0 L21.6023256,1.6681325 L0,1.6681325 L0,0 L21.6023256,0 Z"></path></clipPath><clipPath id="i59"><path d="M0.247727694,0 L21.4032342,0.0618133324 C21.5141436,0.0618133324 21.6041438,0.152715292 21.6023527,0.264524702 L21.5732346,1.46715763 C21.5695983,1.57805802 21.4759617,1.66623292 21.3641432,1.66168782 L2.14682327,0.946289398 C2.0359139,0.9417443 1.96227736,1.02810116 1.98227741,1.13809253 L2.05591395,1.5216988 C2.0768231,1.63078115 2.00682292,1.69259448 1.90045903,1.65896076 L0.180454801,1.10718587 C0.0740909034,1.07355214 -0.00681838622,0.954470574 0.000454358914,0.843570183 L0.0359089915,0.20180235 C0.0413635503,0.0909019594 0.13681833,0 0.247727694,0 Z"></path></clipPath><clipPath id="i60"><path d="M21.2120401,0.000682824081 C21.3229495,-0.00840737186 21.4202224,0.0743134112 21.4274952,0.186122821 L21.4993135,1.36966633 C21.5047681,1.48056672 21.4184042,1.57601378 21.3074949,1.58055888 L0.219261263,2.49957769 C0.1083519,2.50503181 0.0147153061,2.41776593 0.0110789335,2.30595651 L0,1.96143809 C-0.00437564989,1.84962868 0.0828972918,1.75145456 0.193806655,1.74236437 Z"></path></clipPath><clipPath id="i61"><path d="M20.9006871,0.00295585971 C21.0106873,-0.0161335518 21.115233,0.0593150745 21.1325058,0.169306445 L21.299779,1.28558251 C21.3161426,1.3964829 21.2379606,1.49920211 21.1279604,1.51374643 L0.276090945,4.34443344 C0.165181581,4.35988677 0.0642722424,4.28171109 0.0524540316,4.1708107 L0.00154481558,3.75447972 C-0.0120915816,3.64448835 0.0660904287,3.53904208 0.175181606,3.51995267 Z"></path></clipPath><clipPath id="i62"><path d="M20.4101432,0.00691448108 C20.5174162,-0.0221741459 20.6274165,0.0432752648 20.6546893,0.151448597 L20.9465082,1.3622627 C20.9719628,1.47134505 20.9037808,1.57951838 20.7946896,1.60406191 L0.32463931,6.1918838 C0.216457226,6.21551831 0.109184236,6.14643282 0.0873660001,6.03735047 L0.00463852416,5.64829008 C-0.0189978975,5.54011675 0.0500931813,5.42739832 0.157366172,5.39830969 Z"></path></clipPath><clipPath id="i63"><path d="M19.7877724,0.012084016 C19.8923181,-0.0260948069 20.0077729,0.0293553883 20.0441366,0.133892642 L20.4159557,1.23380635 C20.4505013,1.33925262 20.3923193,1.45378909 20.2859554,1.48742282 L0.36499738,7.84146978 C0.258633482,7.87601253 0.145905932,7.81601723 0.113178579,7.70966194 L0.00954196086,7.36968861 C-0.0240944854,7.26333332 0.0340874757,7.14606979 0.138633187,7.10789097 Z"></path></clipPath><clipPath id="i64"><path d="M19.0047353,0.0188891473 C19.1056446,-0.0283798716 19.2256449,0.0161620885 19.2710995,0.117972283 L19.7574644,1.22515815 C19.8011008,1.32787736 19.7529189,1.44604991 19.6501914,1.48877383 L0.396507727,9.47632901 C0.293780202,9.51905293 0.175598093,9.46996587 0.134688902,9.36633763 L0.0155977002,9.07363333 C-0.0271296775,8.97091411 0.021052259,8.84819647 0.121961598,8.80092745 Z"></path></clipPath><clipPath id="i65"><path d="M18.0975903,0.0264838266 C18.1939542,-0.0289663686 18.3166818,0.00557637596 18.3712273,0.102841473 L18.9639561,1.18911989 C19.0157744,1.287294 18.9785016,1.40910263 18.8794104,1.46091675 L0.453001512,11.0710719 C0.353910359,11.121977 0.232091878,11.0828892 0.182091755,10.983806 L0.0230004553,10.6738303 C-0.0279087607,10.5747472 0.00845496498,10.4483935 0.104818838,10.3929433 Z"></path></clipPath><clipPath id="i66"><path d="M17.1068316,0.0357836987 C17.197741,-0.0278476729 17.3241049,-0.00421316341 17.3868323,0.0875978156 L18.037743,1.06388486 C18.0995614,1.15660486 18.0722886,1.28204956 17.978652,1.34204486 L0.523154543,12.5093506 C0.429517949,12.5693459 0.304972188,12.5411663 0.245881134,12.4466282 L0.0331533388,12.1093819 C-0.0277559017,12.0157529 -0.00230129376,11.8875812 0.0895171136,11.8239498 Z"></path></clipPath><clipPath id="i67"><path d="M15.8603929,0.0469947176 C15.9449386,-0.0248178303 16.0722116,-0.0130005756 16.1431209,0.0733562859 L16.9985776,1.14327235 C17.0676686,1.23144725 17.051305,1.35870999 16.9631229,1.42597744 L0.548537143,13.9704478 C0.459446015,14.0386243 0.332172976,14.0213529 0.265809176,13.932269 L0.0430813563,13.6413827 C-0.0251006294,13.5532078 -0.0105551391,13.422309 0.0739905231,13.3504965 Z"></path></clipPath><clipPath id="i68"><path d="M14.5558721,0.059200388 C14.6340541,-0.0198843166 14.7622362,-0.0198843166 14.8395091,0.0601094076 L15.7613296,1.02639724 C15.8376934,1.10729998 15.8322388,1.23547174 15.7504204,1.31092037 L0.55220129,15.2289194 C0.470382907,15.303459 0.342200774,15.2980049 0.267655136,15.2152841 L0.0549273407,14.981666 C-0.0205273901,14.8998543 -0.0178001107,14.7680464 0.0603818996,14.6889617 Z"></path></clipPath><clipPath id="i69"><path d="M13.3016198,0.0704832675 C13.3734381,-0.0140555548 13.5016203,-0.0240547703 13.5852568,0.0486667972 L14.5007136,0.854058158 C14.5843502,0.928597764 14.5907139,1.05676953 14.5152591,1.13858129 L0.644315955,16.3155724 C0.568861224,16.3973842 0.440679091,16.4028383 0.358860708,16.3273897 L0.0679509028,16.0601379 C-0.0147765731,15.9855983 -0.0229584114,15.8546995 0.0488599469,15.7701607 Z"></path></clipPath><clipPath id="i70"><path d="M11.8236061,0.0845049255 C11.8872427,-0.00639703396 12.0136066,-0.0273044846 12.1036068,0.0381449262 L13.1117911,0.786268052 C13.2008823,0.853535502 13.218155,0.980798245 13.149973,1.06897315 L0.665396921,17.346787 C0.597214935,17.4358709 0.469941895,17.4513243 0.382668953,17.3831478 L0.0817591232,17.1522568 C-0.00642291163,17.0840804 -0.0264229608,16.9549996 0.0372135592,16.8631886 Z"></path></clipPath><clipPath id="i71"><path d="M10.2736616,0.0993895482 C10.3291163,0.00303347117 10.453662,-0.0287822146 10.5491168,0.0284860198 L11.5927558,0.665708755 C11.6873014,0.723886009 11.7163924,0.849330713 11.6563923,0.942959732 L0.662728901,18.2179681 C0.602728753,18.3125061 0.4772739,18.3397767 0.383637306,18.2797814 L0.0981820594,18.0988865 C0.00363637257,18.0398003 -0.0281818874,17.9125375 0.0272727943,17.8161814 Z"></path></clipPath><clipPath id="i72"><path d="M8.70293945,0.114520102 C8.7502123,0.0136189267 8.87112169,-0.0281959746 8.97112193,0.0199820639 L10.0374882,0.549940487 C10.1365793,0.600845585 10.1756703,0.72265421 10.1247611,0.821737346 L0.738374435,18.9848579 C0.687465219,19.083941 0.564737645,19.1221198 0.465646492,19.0703057 L0.113827446,18.8894108 C0.0147362934,18.8394147 -0.0279910843,18.7157881 0.0192817591,18.6148869 Z"></path></clipPath><clipPath id="i73"><path d="M7.16714604,0.000870824516 L7.21960408,0.0132646333 L8.44869801,0.495954038 C8.55142554,0.537768939 8.60142566,0.655941486 8.55869828,0.758660701 L0.731406328,19.6117271 C0.68867895,19.7144463 0.569587749,19.7635334 0.46595113,19.7217185 L0.131404854,19.5853655 C0.0277682359,19.5444596 -0.0258682595,19.4253781 0.0123136525,19.3199318 L6.96142163,0.131437181 C6.99960354,0.0268999272 7.11596747,-0.0267322288 7.21960408,0.0132646333 Z"></path></clipPath><clipPath id="i74"><path d="M5.45398859,2.74761823e-07 L5.50759562,0.00742814321 L6.70396219,0.355582648 C6.81123519,0.387398334 6.87123533,0.500116763 6.83759889,0.606472056 L0.71667476,20.0594914 C0.683038313,20.1658467 0.569401671,20.225842 0.463037773,20.1931173 L0.149400639,20.0976702 C0.042127648,20.0658545 -0.0215088719,19.9522271 0.00667301546,19.8449627 L5.26032228,0.14832618 C5.28850417,0.0410618682 5.40032263,-0.0225695034 5.50759562,0.00742814321 Z"></path></clipPath><clipPath id="i75"><path d="M3.76827789,0.00067194517 L3.82214166,0.00358417461 L4.98668998,0.23720221 C5.09578115,0.2599277 5.16487223,0.367192012 5.14123581,0.476274364 L0.739406814,20.3665321 C0.7148613,20.4747054 0.606679216,20.545609 0.497588039,20.5219745 L0.166678135,20.453798 C0.0566778645,20.4328905 -0.0160495869,20.3247172 0.00304136908,20.2156349 L3.58759563,0.165389662 C3.60759568,0.0553982915 3.71305048,-0.0173232761 3.82214166,0.00358417461 Z"></path></clipPath><clipPath id="i76"><path d="M1.97341523,0.000975851719 L3.24796382,0.13914683 C3.35887318,0.151873104 3.43796428,0.25186526 3.42341879,0.36276565 L0.807957822,20.5539089 C0.793412332,20.6639002 0.690684807,20.743894 0.580684537,20.7302587 L0.184319927,20.6838987 C0.0743196564,20.6720814 -0.00840781954,20.5711802 0.000683111887,20.4602799 L1.75432378,0.182779771 C1.76432381,0.0718793801 1.86250587,-0.00993238341 1.97341523,0.000975851719 Z"></path></clipPath></defs><g transform=""><g transform="translate(45.14186523805643 43.88808795957721)"><g clip-path="url(#i0)"><polygon points="0,0 11.5336647,0 11.5336647,15.0238357 0,15.0238357 0,0" stroke="none" fill="#C6AA76"></polygon></g></g><g transform="translate(38.01357499975734 45.30453665323466)"><g clip-path="url(#i1)"><polygon points="0,0 8.72365779,0 8.72365779,13.1826022 0,13.1826022 0,0" stroke="none" fill="#C6AA76"></polygon></g></g><g transform="translate(33.51774577369406 35.76337609058146)"><g clip-path="url(#i2)"><polygon points="0,0 32.0791697,0 32.0791697,31.3284513 0,31.3284513 0,0" stroke="none" fill="#C6AA76"></polygon></g></g><g transform="translate(39.42330674396817 77.13322184898652)"><g clip-path="url(#i3)"><polygon points="-2.67928041e-15,-6.61797006e-16 5.52274564,-6.61797006e-16 5.52274564,22.0296859 -2.67928041e-15,22.0296859 -2.67928041e-15,-6.61797006e-16" stroke="none" fill="#C6AA76"></polygon></g></g><g transform="translate(35.33994513466928 76.58657082130503)"><g clip-path="url(#i4)"><polygon points="6.36643516e-16,-9.50628465e-16 7.33459369,-9.50628465e-16 7.33459369,21.6369524 6.36643516e-16,21.6369524 6.36643516e-16,-9.50628465e-16" stroke="none" fill="#C6AA76"></polygon></g></g><g transform="translate(27.29047895095323 74.85383479727807)"><g clip-path="url(#i5)"><polygon points="9.15933995e-16,5.75928194e-16 10.7772619,5.75928194e-16 10.7772619,20.3220534 9.15933995e-16,20.3220534 9.15933995e-16,5.75928194e-16" stroke="none" fill="#C6AA76"></polygon></g></g><g transform="translate(43.01596650035299 77.49050123392954)"><g clip-path="url(#i6)"><polygon points="-2.14541926e-15,-2.22261445e-16 4.33690523,-2.22261445e-16 4.33690523,22.2805342 -2.14541926e-15,22.2805342 -2.14541926e-15,-2.22261445e-16" stroke="none" fill="#C6AA76"></polygon></g></g><g transform="translate(49.70935968698461 0.0)"><g clip-path="url(#i7)"><g transform="translate(0.0 -0.0006363137158587051)"><g clip-path="url(#i8)"><polygon points="0,0.000636313716 2.20108527,0.000636313716 2.20108527,20.7785397 0,20.7785397 0,0.000636313716" stroke="none" fill="#C6AA76"></polygon></g></g></g></g><g transform="translate(47.3616163704246 77.66530051821428)"><g clip-path="url(#i9)"><polygon points="-2.862619e-15,-5.83195227e-05 2.51044231,-5.83195227e-05 2.51044231,22.3347258 -2.862619e-15,22.3347258 -2.862619e-15,-5.83195227e-05" stroke="none" fill="#C6AA76"></polygon></g></g><g transform="translate(31.291548470499272 75.82956087089269)"><g clip-path="url(#i10)"><polygon points="2.17187379e-15,1.30451205e-15 9.02488175,1.30451205e-15 9.02488175,21.0597354 2.17187379e-15,21.0597354 2.17187379e-15,1.30451205e-15" stroke="none" fill="#C6AA76"></polygon></g></g><g transform="translate(23.43704307716416 73.67410956190179)"><g clip-path="url(#i11)"><polygon points="3.33066907e-16,6.59194921e-17 12.4316311,6.59194921e-17 12.4316311,19.4701053 3.33066907e-16,19.4701053 3.33066907e-16,6.59194921e-17" stroke="none" fill="#C6AA76"></polygon></g></g><g transform="translate(19.86624739330466 72.34942925667565)"><g clip-path="url(#i12)"><polygon points="-1.43635104e-15,1.11022302e-15 13.9557333,1.11022302e-15 13.9557333,18.4200878 -1.43635104e-15,18.4200878 -1.43635104e-15,1.11022302e-15" stroke="none" fill="#C6AA76"></polygon></g></g><g transform="translate(16.58106033532465 70.9291817140197)"><g clip-path="url(#i13)"><polygon points="2.49800181e-16,1.08940634e-15 15.303691,1.08940634e-15 15.303691,17.1652947 2.49800181e-16,17.1652947 2.49800181e-16,1.08940634e-15" stroke="none" fill="#C6AA76"></polygon></g></g><g transform="translate(13.458434785579698 69.17400095156154)"><g clip-path="url(#i14)"><polygon points="2.35922393e-16,-2.83800761e-15 16.628348,-2.83800761e-15 16.628348,15.9555293 2.35922393e-16,15.9555293 2.35922393e-16,-2.83800761e-15" stroke="none" fill="#C6AA76"></polygon></g></g><g transform="translate(10.539664451266619 67.29933283979472)"><g clip-path="url(#i15)"><polygon points="1.94289029e-16,3.16413562e-15 17.8492745,3.16413562e-15 17.8492745,14.5968557 1.94289029e-16,14.5968557 1.94289029e-16,3.16413562e-15" stroke="none" fill="#C6AA76"></polygon></g></g><g transform="translate(8.035900044289404 65.39643474514969)"><g clip-path="url(#i16)"><polygon points="2.49800181e-16,-1.45716772e-15 18.8299449,-1.45716772e-15 18.8299449,13.0614019 2.49800181e-16,13.0614019 2.49800181e-16,-1.45716772e-15" stroke="none" fill="#C6AA76"></polygon></g></g><g transform="translate(5.818860605095324 63.29841774228817)"><g clip-path="url(#i17)"><polygon points="1.80411242e-16,2.91433544e-16 19.6929332,2.91433544e-16 19.6929332,11.4508337 1.80411242e-16,11.4508337 1.80411242e-16,2.91433544e-16" stroke="none" fill="#C6AA76"></polygon></g></g><g transform="translate(3.9839600828061066 61.13696962411677)"><g clip-path="url(#i18)"><polygon points="3.1918912e-16,-1.83186799e-15 20.3850594,-1.83186799e-15 20.3850594,9.74645093 3.1918912e-16,9.74645093 3.1918912e-16,-1.83186799e-15" stroke="none" fill="#C6AA76"></polygon></g></g><g transform="translate(2.4732692180775757 58.80921683768611)"><g clip-path="url(#i19)"><polygon points="1.66533454e-16,1.11022302e-16 20.8915207,1.11022302e-16 20.8915207,8.02208816 1.66533454e-16,8.02208816 1.66533454e-16,1.11022302e-16" stroke="none" fill="#C6AA76"></polygon></g></g><g transform="translate(1.2814680677829529 56.43838773605876)"><g clip-path="url(#i20)"><polygon points="-5.55111512e-17,-2.3869795e-15 21.325653,-2.3869795e-15 21.325653,6.15470275 -5.55111512e-17,6.15470275 -5.55111512e-17,-2.3869795e-15" stroke="none" fill="#C6AA76"></polygon></g></g><g transform="translate(0.4669698565407998 54.058759997577)"><g clip-path="url(#i21)"><polygon points="-8.32667268e-17,1.36002321e-15 21.5683322,1.36002321e-15 21.5683322,4.26575831 -8.32667268e-17,4.26575831 -8.32667268e-17,1.36002321e-15" stroke="none" fill="#C6AA76"></polygon></g></g><g transform="translate(0.06606052229074066 51.49862646387783)"><g clip-path="url(#i22)"><polygon points="-5.55111512e-17,-1.66533454e-16 21.6159142,-1.66533454e-16 21.6159142,2.56889908 -5.55111512e-17,2.56889908 -5.55111512e-17,-1.66533454e-16" stroke="none" fill="#C6AA76"></polygon></g></g><g transform="translate(36.0630491982555 1.2477792723962011)"><g clip-path="url(#i23)"><polygon points="-2.94209102e-15,4.08006962e-15 7.32495478,4.08006962e-15 7.32495478,20.5311089 -2.94209102e-15,20.5311089 -2.94209102e-15,4.08006962e-15" stroke="none" fill="#C6AA76"></polygon></g></g><g transform="translate(40.86925830064229 0.4749573356134533)"><g clip-path="url(#i24)"><polygon points="8.04911693e-16,4.08006962e-15 5.22128585,4.08006962e-15 5.22128585,20.7223837 8.04911693e-16,20.7223837 8.04911693e-16,4.08006962e-15" stroke="none" fill="#C6AA76"></polygon></g></g><g transform="translate(45.0469102239017 0.07238799575088706)"><g clip-path="url(#i25)"><polygon points="-1.52655666e-15,-2.35922393e-15 3.49266272,-2.35922393e-15 3.49266272,20.7857495 -1.52655666e-15,20.7857495 -1.52655666e-15,-2.35922393e-15" stroke="none" fill="#C6AA76"></polygon></g></g><g transform="translate(18.1856187959296 10.56425949276309)"><g clip-path="url(#i26)"><polygon points="8.04911693e-16,5.4678484e-15 13.8882255,5.4678484e-15 13.8882255,17.3507944 8.04911693e-16,17.3507944 8.04911693e-16,5.4678484e-15" stroke="none" fill="#C6AA76"></polygon></g></g><g transform="translate(14.84344941777329 13.386233559213002)"><g clip-path="url(#i27)"><polygon points="-9.43689571e-16,-3.92741395e-15 15.3057809,-3.92741395e-15 15.3057809,16.274049 -9.43689571e-16,16.274049 -9.43689571e-16,-3.92741395e-15" stroke="none" fill="#C6AA76"></polygon></g></g><g transform="translate(11.913395976592712 16.515831547845657)"><g clip-path="url(#i28)"><polygon points="-7.35522754e-16,9.15933995e-16 16.4725607,9.15933995e-16 16.4725607,15.0590573 -7.35522754e-16,15.0590573 -7.35522754e-16,9.15933995e-16" stroke="none" fill="#C6AA76"></polygon></g></g><g transform="translate(9.244775304493713 19.846340120401237)"><g clip-path="url(#i29)"><polygon points="-1.38777878e-17,-1.56819002e-15 17.5824216,-1.56819002e-15 17.5824216,13.7033106 -1.38777878e-17,13.7033106 -1.38777878e-17,-1.56819002e-15" stroke="none" fill="#C6AA76"></polygon></g></g><g transform="translate(6.880430802501225 23.36653896244297)"><g clip-path="url(#i30)"><polygon points="-3.88578059e-16,-4.63518113e-15 18.559476,-4.63518113e-15 18.559476,12.3417217 -3.88578059e-16,12.3417217 -3.88578059e-16,-4.63518113e-15" stroke="none" fill="#C6AA76"></polygon></g></g><g transform="translate(4.871956735555727 27.205559956908473)"><g clip-path="url(#i31)"><polygon points="-3.12250226e-16,4.58660887e-15 19.405522,4.58660887e-15 19.405522,10.8293563 -3.12250226e-16,10.8293563 -3.12250226e-16,4.58660887e-15" stroke="none" fill="#C6AA76"></polygon></g></g><g transform="translate(3.1722133400292023 31.169999163689234)"><g clip-path="url(#i32)"><polygon points="7.97972799e-17,-5.15559817e-15 20.1293879,-5.15559817e-15 20.1293879,9.26817953 7.97972799e-17,9.26817953 7.97972799e-17,-5.15559817e-15" stroke="none" fill="#C6AA76"></polygon></g></g><g transform="translate(1.7949663917544285 35.28515394751275)"><g clip-path="url(#i33)"><polygon points="-4.07660017e-17,4.17547941e-15 20.7163491,4.17547941e-15 20.7163491,7.50711352 -4.07660017e-17,7.50711352 -4.07660017e-17,4.17547941e-15" stroke="none" fill="#C6AA76"></polygon></g></g><g transform="translate(0.8307159756107012 39.53176213160077)"><g clip-path="url(#i34)"><polygon points="1.21430643e-17,3.29337252e-15 21.1402877,3.29337252e-15 21.1402877,5.66232864 1.21430643e-17,5.66232864 1.21430643e-17,3.29337252e-15" stroke="none" fill="#C6AA76"></polygon></g></g><g transform="translate(0.2269607920953831 43.80292970226628)"><g clip-path="url(#i35)"><polygon points="-5.85469173e-18,9.69276742e-17 21.4191205,9.69276742e-17 21.4191205,4.24837452 -5.85469173e-18,4.24837452 -5.85469173e-18,9.69276742e-17" stroke="none" fill="#C6AA76"></polygon></g></g><g transform="translate(0.0 48.01117581859444)"><g clip-path="url(#i36)"><polygon points="-2.62785661e-05,-2.30105648e-15 21.5365061,-2.30105648e-15 21.5365061,2.73738828 -2.62785661e-05,2.73738828 -2.62785661e-05,-2.30105648e-15" stroke="none" fill="#C6AA76"></polygon></g></g><g transform="translate(21.63490649799951 8.033127793340098)"><g clip-path="url(#i37)"><polygon points="-1.42941214e-15,-6.48092691e-15 12.4901317,-6.48092691e-15 12.4901317,18.213616 -1.42941214e-15,18.213616 -1.42941214e-15,-6.48092691e-15" stroke="none" fill="#C6AA76"></polygon></g></g><g transform="translate(25.13510270918152 5.809614067280108)"><g clip-path="url(#i38)"><polygon points="1.16573418e-15,2.65065747e-15 11.1473951,2.65065747e-15 11.1473951,19.0251962 1.16573418e-15,19.0251962 1.16573418e-15,2.65065747e-15" stroke="none" fill="#C6AA76"></polygon></g></g><g transform="translate(28.25500732405783 3.9574309353929493)"><g clip-path="url(#i39)"><polygon points="-1.2490009e-15,1.72084569e-15 10.3360208,1.72084569e-15 10.3360208,19.7031507 -1.2490009e-15,19.7031507 -1.2490009e-15,1.72084569e-15" stroke="none" fill="#C6AA76"></polygon></g></g><g transform="translate(31.905736158801346 2.3900327367100545)"><g clip-path="url(#i40)"><polygon points="1.01307851e-15,5.74540415e-15 9.16820387,5.74540415e-15 9.16820387,20.2282077 1.01307851e-15,20.2282077 1.01307851e-15,5.74540415e-15" stroke="none" fill="#C6AA76"></polygon></g></g><g transform="translate(51.25348954330332 77.60748702797355)"><g clip-path="url(#i41)"><polygon points="-2.62785661e-05,-3.05311332e-16 2.82616493,-3.05311332e-16 2.82616493,22.362543 -2.62785661e-05,22.362543 -2.62785661e-05,-3.05311332e-16" stroke="none" fill="#C6AA76"></polygon></g></g><g transform="translate(53.575546194147364 77.34578218349998)"><g clip-path="url(#i42)"><polygon points="-2.85882429e-15,-6.9388939e-16 4.83672771,-6.9388939e-16 4.83672771,22.3135648 -2.85882429e-15,22.3135648 -2.85882429e-15,-6.9388939e-16" stroke="none" fill="#C6AA76"></polygon></g></g><g transform="translate(55.99658219370826 76.85528421162599)"><g clip-path="url(#i43)"><polygon points="1.94289029e-16,-4.16333634e-16 6.64205923,-4.16333634e-16 6.64205923,22.1259031 1.94289029e-16,22.1259031 1.94289029e-16,-4.16333634e-16" stroke="none" fill="#C6AA76"></polygon></g></g><g transform="translate(58.05737402099089 76.18405923437922)"><g clip-path="url(#i44)"><polygon points="-1.58206781e-15,-3.33066907e-16 8.72970853,-3.33066907e-16 8.72970853,21.7275092 -1.58206781e-15,21.7275092 -1.58206781e-15,-3.33066907e-16" stroke="none" fill="#C6AA76"></polygon></g></g><g transform="translate(60.50936115932269 75.31839921333494)"><g clip-path="url(#i45)"><polygon points="-4.71844785e-16,-1.20736754e-15 10.4594419,-1.20736754e-15 10.4594419,20.6730207 -4.71844785e-16,20.6730207 -4.71844785e-16,-1.20736754e-15" stroke="none" fill="#C6AA76"></polygon></g></g><g transform="translate(62.69152693012586 74.23995681596034)"><g clip-path="url(#i46)"><polygon points="-1.20736754e-15,-8.32667268e-17 12.0873047,-8.32667268e-17 12.0873047,19.9079499 -1.20736754e-15,19.9079499 -1.20736754e-15,-8.32667268e-17" stroke="none" fill="#C6AA76"></polygon></g></g><g transform="translate(64.83664717390911 72.98879313888028)"><g clip-path="url(#i47)"><polygon points="6.05071548e-15,1.11022302e-15 13.6095645,1.11022302e-15 13.6095645,18.9305954 6.05071548e-15,18.9305954 6.05071548e-15,1.11022302e-15" stroke="none" fill="#C6AA76"></polygon></g></g><g transform="translate(66.79492336390695 71.54774802875181)"><g clip-path="url(#i48)"><polygon points="3.35842465e-15,-8.74300632e-16 15.0936456,-8.74300632e-16 15.0936456,17.8138283 3.35842465e-15,17.8138283 3.35842465e-15,-8.74300632e-16" stroke="none" fill="#C6AA76"></polygon></g></g><g transform="translate(68.70311371536695 69.95850690425732)"><g clip-path="url(#i49)"><polygon points="-3.03923553e-15,-5.34294831e-16 16.3314299,-5.34294831e-16 16.3314299,16.5871551 -3.03923553e-15,16.5871551 -3.03923553e-15,-5.34294831e-16" stroke="none" fill="#C6AA76"></polygon></g></g><g transform="translate(70.49574570303866 68.23515058882913)"><g clip-path="url(#i50)"><polygon points="6.9388939e-18,-1.16573418e-15 17.571057,-1.16573418e-15 17.571057,15.280443 6.9388939e-18,15.280443 6.9388939e-18,-1.16573418e-15" stroke="none" fill="#C6AA76"></polygon></g></g><g transform="translate(72.083199541206 66.35869002590198)"><g clip-path="url(#i51)"><polygon points="-2.99066327e-15,1.62370117e-15 18.6311983,1.62370117e-15 18.6311983,13.7587383 -2.99066327e-15,13.7587383 -2.99066327e-15,1.62370117e-15" stroke="none" fill="#C6AA76"></polygon></g></g><g transform="translate(73.57710402632404 64.31389100132901)"><g clip-path="url(#i52)"><polygon points="5.40539835e-15,2.77555756e-16 19.5076336,2.77555756e-16 19.5076336,12.2548102 5.40539835e-15,12.2548102 5.40539835e-15,2.77555756e-16" stroke="none" fill="#C6AA76"></polygon></g></g><g transform="translate(74.85620959790515 62.15718617680795)"><g clip-path="url(#i53)"><polygon points="-1.2490009e-15,1.72778458e-15 20.3208609,1.72778458e-15 20.3208609,10.661224 -1.2490009e-15,10.661224 -1.2490009e-15,1.72778458e-15" stroke="none" fill="#C6AA76"></polygon></g></g><g transform="translate(75.98558683356657 59.88704768752996)"><g clip-path="url(#i54)"><polygon points="2.21003771e-15,7.14706072e-16 20.8608804,7.14706072e-16 20.8608804,8.91974608 2.21003771e-15,8.91974608 2.21003771e-15,7.14706072e-16" stroke="none" fill="#C6AA76"></polygon></g></g><g transform="translate(76.89300202614231 57.6208167631662)"><g clip-path="url(#i55)"><polygon points="-5.02722863e-15,-8.23993651e-17 21.2903313,-8.23993651e-17 21.2903313,7.08632567 -5.02722863e-15,7.08632567 -5.02722863e-15,-8.23993651e-17" stroke="none" fill="#C6AA76"></polygon></g></g><g transform="translate(77.61517051996475 55.18944481285871)"><g clip-path="url(#i56)"><polygon points="2.84841595e-15,1.96283961e-15 21.555333,1.96283961e-15 21.555333,5.49724662 2.84841595e-15,5.49724662 2.84841595e-15,1.96283961e-15" stroke="none" fill="#C6AA76"></polygon></g></g><g transform="translate(78.10410984793782 52.82430913615099)"><g clip-path="url(#i57)"><polygon points="-1.66663558e-15,2.49594182e-15 21.6645019,2.49594182e-15 21.6645019,3.43207928 -1.66663558e-15,3.43207928 -1.66663558e-15,2.49594182e-15" stroke="none" fill="#C6AA76"></polygon></g></g><g transform="translate(78.39767439311493 50.35186795001482)"><g clip-path="url(#i58)"><g clip-path="url(#i59)"><polygon points="2.64035755e-15,0 21.6023256,0 21.6023256,1.6681325 2.64035755e-15,1.6681325 2.64035755e-15,0" stroke="none" fill="#C6AA76"></polygon></g></g></g><g transform="translate(78.44295904674914 46.10460918968192)"><g clip-path="url(#i60)"><polygon points="-0.000157620278,-1.16573418e-15 21.4995584,-1.16573418e-15 21.4995584,2.49982007 -0.000157620278,2.49982007 -0.000157620278,-1.16573418e-15" stroke="none" fill="#C6AA76"></polygon></g></g><g transform="translate(78.23185625905592 41.81721778700876)"><g clip-path="url(#i61)"><polygon points="-4.88498131e-15,-3.05311332e-16 21.3019456,-3.05311332e-16 21.3019456,4.34638204 -4.88498131e-15,4.34638204 -4.88498131e-15,-3.05311332e-16" stroke="none" fill="#C6AA76"></polygon></g></g><g transform="translate(77.80012513386964 37.44614723119821)"><g clip-path="url(#i62)"><polygon points="5.49560397e-15,-5.93969318e-15 20.9518386,-5.93969318e-15 20.9518386,6.19651772 5.49560397e-15,6.19651772 5.49560397e-15,-5.93969318e-15" stroke="none" fill="#C6AA76"></polygon></g></g><g transform="translate(77.15394739457679 33.31475595428583)"><g clip-path="url(#i63)"><polygon points="1.49880108e-15,-4.05231404e-15 20.4259173,-4.05231404e-15 20.4259173,7.85125225 1.49880108e-15,7.85125225 1.49880108e-15,-4.05231404e-15" stroke="none" fill="#C6AA76"></polygon></g></g><g transform="translate(76.29698047404975 29.263904452372124)"><g clip-path="url(#i64)"><polygon points="4.62130334e-15,-3.66373598e-15 19.7735582,-3.66373598e-15 19.7735582,9.49174633 4.62130334e-15,9.49174633 4.62130334e-15,-3.66373598e-15" stroke="none" fill="#C6AA76"></polygon></g></g><g transform="translate(75.24512060774452 25.4286100657614)"><g clip-path="url(#i65)"><polygon points="-3.89965837e-15,-4.39925874e-15 18.9872805,-4.39925874e-15 18.9872805,11.0933997 -3.89965837e-15,11.0933997 -3.89965837e-15,-4.39925874e-15" stroke="none" fill="#C6AA76"></polygon></g></g><g transform="translate(73.95314639352705 21.77614146402448)"><g clip-path="url(#i66)"><polygon points="-4.27435864e-15,-5.50948176e-15 18.0709321,-5.50948176e-15 18.0709321,12.5408851 -4.27435864e-15,12.5408851 -4.27435864e-15,-5.50948176e-15" stroke="none" fill="#C6AA76"></polygon></g></g><g transform="translate(72.4701238481806 18.15630446008936)"><g clip-path="url(#i67)"><polygon points="-7.35522754e-16,1.11022302e-15 17.0414207,1.11022302e-15 17.0414207,14.0121548 -7.35522754e-16,14.0121548 -7.35522754e-16,1.11022302e-15" stroke="none" fill="#C6AA76"></polygon></g></g><g transform="translate(70.87518306573338 14.94689507295789)"><g clip-path="url(#i68)"><polygon points="-6.05765438e-15,-3.97598621e-15 15.8153519,-3.97598621e-15 15.8153519,15.2812915 -6.05765438e-15,15.2812915 -6.05765438e-15,-3.97598621e-15" stroke="none" fill="#C6AA76"></polygon></g></g><g transform="translate(69.02670044923741 12.05020219760036)"><g clip-path="url(#i69)"><polygon points="-5.97438765e-15,1.16573418e-15 14.5679031,1.16573418e-15 14.5679031,16.3806314 -5.97438765e-15,16.3806314 -5.97438765e-15,1.16573418e-15" stroke="none" fill="#C6AA76"></polygon></g></g><g transform="translate(67.10352390208095 9.374207559998014)"><g clip-path="url(#i70)"><polygon points="-1.13103971e-15,4.62824223e-15 13.1916834,4.62824223e-15 13.1916834,17.425535 -1.13103971e-15,17.425535 -1.13103971e-15,4.62824223e-15" stroke="none" fill="#C6AA76"></polygon></g></g><g transform="translate(64.96364120403712 6.963965404633202)"><g clip-path="url(#i71)"><polygon points="4.78436735e-15,-4.04884459e-15 11.6876675,-4.04884459e-15 11.6876675,18.311581 4.78436735e-15,18.311581 4.78436735e-15,-4.04884459e-15" stroke="none" fill="#C6AA76"></polygon></g></g><g transform="translate(62.72653581488771 4.921448450189473)"><g clip-path="url(#i72)"><polygon points="-5.20417043e-16,-1.67227343e-15 10.1470908,-1.67227343e-15 10.1470908,19.0934275 -5.20417043e-16,19.0934275 -5.20417043e-16,-1.67227343e-15" stroke="none" fill="#C6AA76"></polygon></g></g><g transform="translate(60.412043673292594 3.186666142157719)"><g clip-path="url(#i73)"><polygon points="-2.5934116e-15,3.54404006e-15 8.57399411,3.54404006e-15 8.57399411,19.7366335 -2.5934116e-15,19.7366335 -2.5934116e-15,3.54404006e-15" stroke="none" fill="#C6AA76"></polygon></g></g><g transform="translate(57.96295100739576 1.8311548880183182)"><g clip-path="url(#i74)"><polygon points="2.78336382e-15,-1.61242547e-15 6.84694948,-1.61242547e-15 6.84694948,20.202053 2.78336382e-15,20.202053 2.78336382e-15,-1.61242547e-15" stroke="none" fill="#C6AA76"></polygon></g></g><g transform="translate(55.41894003172069 0.8510760478538941)"><g clip-path="url(#i75)"><polygon points="4.19803081e-16,-2.71310752e-15 5.1458701,-2.71310752e-15 5.1458701,20.5265247 4.19803081e-16,20.5265247 4.19803081e-16,-2.71310752e-15" stroke="none" fill="#C6AA76"></polygon></g></g><g transform="translate(52.90956484598064 0.23809630155528794)"><g clip-path="url(#i76)"><polygon points="-1.25344613e-15,5.65942692e-15 3.42514355,5.65942692e-15 3.42514355,20.7317735 -1.25344613e-15,20.7317735 -1.25344613e-15,5.65942692e-15" stroke="none" fill="#C6AA76"></polygon></g></g></g></svg>