<svg viewBox="0 0 751 195" version="1.1" xmlns="http://www.w3.org/2000/svg" xmlns:xlink="http://www.w3.org/1999/xlink">
	<g stroke="none" stroke-width="1" fill="none" fill-rule="evenodd">
		<g id="Logo" fill="#FFFFFF">
			<path d="M337.739,163.113 C339.018,163.113 339.914,163.401 340.459,163.945 C340.106,165 339.818,165.513 339.147,166.472 L339.147,166.472 L338.762,166.472 C337.771,165.32 337.259,164.617 335.979,164.617 C334.284,164.617 333.835,170.311 333.324,172.071 L333.324,172.071 L337.355,172.295 L337.228,173.127 L333.068,173.351 L331.756,180.9 C330.573,187.586 329.453,194.145 324.303,194.145 C323.087,194.145 322.735,193.952 322.159,193.665 C322.447,192.673 322.607,192.289 323.215,191.49 L323.215,191.49 L323.535,191.49 C323.983,191.906 325.039,192.545 325.87,192.545 C327.246,192.545 327.405,188.098 327.981,184.484 L327.981,184.484 L329.677,173.351 L326.702,173.127 L326.831,172.295 L329.933,172.071 C330.285,169.896 331.692,163.113 337.739,163.113 Z M170.823,163.181 C173.428,163.181 174.991,163.738 176.276,164.466 C176.554,166.168 176.659,168.009 176.659,169.781 L176.659,169.781 L175.408,169.781 C174.957,168.009 174.297,164.501 170.51,164.501 C168.53,164.501 167.037,165.821 167.037,167.975 C167.037,173.324 178.152,172.977 178.152,180.409 C178.152,185.341 173.776,187.148 169.607,187.148 C166.585,187.148 164.605,186.349 163.495,185.758 C162.661,183.57 162.487,182.007 162.487,179.229 L162.487,179.229 L164.12,178.882 C164.605,180.966 165.753,185.828 170.198,185.828 C172.386,185.828 173.845,184.299 173.845,181.972 C173.845,176.103 163.078,176.554 163.078,169.434 C163.078,165.022 166.342,163.181 170.823,163.181 Z M618.955,163.181 C621.56,163.181 623.122,163.738 624.407,164.466 C624.685,166.168 624.789,168.009 624.789,169.781 L624.789,169.781 L623.539,169.781 C623.087,168.009 622.427,164.501 618.642,164.501 C616.662,164.501 615.168,165.821 615.168,167.975 C615.168,173.324 626.283,172.977 626.283,180.409 C626.283,185.341 621.906,187.148 617.739,187.148 C614.717,187.148 612.737,186.349 611.625,185.758 C610.792,183.57 610.618,182.007 610.618,179.229 L610.618,179.229 L612.251,178.882 C612.737,180.966 613.883,185.828 618.329,185.828 C620.518,185.828 621.977,184.299 621.977,181.972 C621.977,176.103 611.209,176.554 611.209,169.434 C611.209,165.022 614.474,163.181 618.955,163.181 Z M319.792,171.591 C322.768,171.591 324.719,172.871 324.719,176.549 C324.719,182.212 320.592,187.106 316.178,187.106 C312.946,187.106 311.059,185.827 311.059,181.892 C311.059,176.677 314.802,171.591 319.792,171.591 Z M740.277,166.76 C742.485,166.76 743.809,167.231 744.898,167.849 C745.133,169.292 745.222,170.851 745.222,172.352 L745.222,172.352 L744.162,172.352 C743.779,170.851 743.221,167.878 740.012,167.878 C738.335,167.878 737.068,168.997 737.068,170.822 C737.068,175.354 746.487,175.06 746.487,181.358 C746.487,185.537 742.779,187.069 739.247,187.069 C736.686,187.069 735.009,186.391 734.066,185.891 C733.361,184.036 733.214,182.712 733.214,180.358 L733.214,180.358 L734.597,180.064 C735.009,181.83 735.98,185.95 739.747,185.95 C741.602,185.95 742.838,184.654 742.838,182.683 C742.838,180.472333 741.035728,179.31984 739.033204,178.191861 L738.529329,177.90978 C736.167092,176.590198 733.714,175.186741 733.714,172.058 C733.714,168.32 736.481,166.76 740.277,166.76 Z M265.182,166.76 C270.863,166.76 275.484,169.968 275.484,176.531 C275.484,183.3 270.568,187.069 264.888,187.069 C259.238,187.069 254.617,183.86 254.617,177.297 C254.617,170.528 259.532,166.76 265.182,166.76 Z M406.009,166.76 C411.689,166.76 416.31,169.968 416.31,176.531 C416.31,183.3 411.395,187.069 405.714,187.069 C400.063,187.069 395.442,183.86 395.442,177.297 C395.442,170.528 400.358,166.76 406.009,166.76 Z M240.668,166.76 C246.349,166.76 250.969,169.968 250.969,176.531 C250.969,183.3 246.054,187.069 240.374,187.069 C234.724,187.069 230.103,183.86 230.103,177.297 C230.103,170.528 235.018,166.76 240.668,166.76 Z M465.64,166.76 C467.848,166.76 469.173,167.231 470.261,167.849 C470.496,169.292 470.585,170.851 470.585,172.352 L470.585,172.352 L469.525,172.352 C469.142,170.851 468.584,167.878 465.375,167.878 C463.698,167.878 462.432,168.997 462.432,170.822 C462.432,175.354 471.85,175.06 471.85,181.358 C471.85,185.537 468.142,187.069 464.61,187.069 C462.05,187.069 460.372,186.391 459.43,185.891 C458.724,184.036 458.577,182.712 458.577,180.358 L458.577,180.358 L459.96,180.064 C460.372,181.83 461.343,185.95 465.11,185.95 C466.965,185.95 468.201,184.654 468.201,182.683 C468.201,180.472333 466.398728,179.31984 464.396204,178.191861 L463.892329,177.90978 C461.530092,176.590198 459.077,175.186741 459.077,172.058 C459.077,168.32 461.844,166.76 465.64,166.76 Z M484.178,166.76 C486.385,166.76 487.71,167.231 488.799,167.849 C489.033,169.292 489.122,170.851 489.122,172.352 L489.122,172.352 L488.063,172.352 C487.68,170.851 487.121,167.878 483.913,167.878 C482.235,167.878 480.969,168.997 480.969,170.822 C480.969,175.354 490.387,175.06 490.387,181.358 C490.387,185.537 486.68,187.069 483.147,187.069 C480.587,187.069 478.91,186.391 477.967,185.891 C477.261,184.036 477.114,182.712 477.114,180.358 L477.114,180.358 L478.497,180.064 C478.91,181.83 479.88,185.95 483.647,185.95 C485.502,185.95 486.738,184.654 486.738,182.683 C486.738,180.472333 484.935728,179.31984 482.933204,178.191861 L482.429329,177.90978 C480.067092,176.590198 477.614,175.186741 477.614,172.058 C477.614,168.32 480.38,166.76 484.178,166.76 Z M193.997,166.76 C197.146,166.76 198.941,167.466 200.119,168.055 C200.324,169.027 200.619,169.997 200.619,172.882 L200.619,172.882 L199.559,173.03 C199.324,171.823 198.676,167.878 193.909,167.878 C189.759,167.878 187.228,171.381 187.228,176.561 C187.228,176.575954 187.228,176.59267 187.228025,176.61109 L187.228668,176.741603 C187.242481,178.292024 187.541754,185.95 194.026,185.95 C199.265,185.95 200.119,180.711 200.177,180.446 L200.177,180.446 L201.238,180.622 C201.031,182.653 200.737,184.449 200.089,185.891 C198.941,186.362 197.205,187.069 193.909,187.069 C188.376,187.069 182.93,184.685 182.93,177.002 C182.93,169.939 188.434,166.76 193.997,166.76 Z M518.76,166.76 C524.44,166.76 529.061,169.968 529.061,176.531 C529.061,183.3 524.146,187.069 518.465,187.069 C512.814,187.069 508.193,183.86 508.193,177.297 C508.193,170.528 513.108,166.76 518.76,166.76 Z M657.635,167.202 L657.635,167.967 L656.928,168.055 C655.628818,168.248515 655.55008,168.571752 655.545308,171.026694 L655.545,179.415 C655.545,183.507 656.781,185.361 660.312,185.361 C662.343,185.361 663.873,184.36 664.521,183.92 L664.521,183.92 L664.521,171.529 C664.521,168.614 664.521,168.261 663.137,168.055 L663.137,168.055 L662.432,167.967 L662.432,167.202 L670.437,167.202 L670.437,167.967 L669.73,168.055 C668.430818,168.248515 668.35208,168.571752 668.347308,171.026694 L668.347,186.686 C667.787,186.891 667.287,186.98 666.67,187.069 L666.67,187.069 L665.963,186.244 C665.581,185.803 665.227,185.273 664.786,185.273 C664.256,185.273 661.814,187.069 658.016,187.069 C652.689,187.069 651.718,183.86 651.718,180.829 L651.718,180.829 L651.718,171.529 C651.718,168.614 651.718,168.261 650.335,168.055 L650.335,168.055 L649.628,167.967 L649.628,167.202 L657.635,167.202 Z M535.647,166.995 L548.832,181.152 L548.832,173.235 C548.832,168.438 548.597,168.232 547.037,168.055 L547.037,168.055 L546.183,167.967 L546.183,167.202 L552.776,167.202 L552.776,167.967 L551.894,168.085 C550.700316,168.247105 550.606078,169.183743 550.598638,172.366222 L550.598,186.627 C550.275,186.715 549.45,186.862 549.068,186.862 L549.068,186.862 L535.97,172.882 L535.970346,181.006154 C535.980887,185.340928 536.239913,185.54213 537.766,185.773 L537.766,185.773 L538.62,185.862 L538.62,186.627 L532.027,186.627 L532.027,185.862 L532.91,185.744 C534.101842,185.581895 534.195935,184.644409 534.203363,181.461796 L534.203976,180.893938 L534.203976,180.893938 L534.204,180.593 L534.204,167.202 C534.528,167.113 535.441,166.995 535.647,166.995 L535.647,166.995 Z M452.224,167.202 C452.576,168.703 452.576,170.469 452.576,171.97 L452.576,171.97 L451.517,172.117 C450.786,168.545133 449.866904,168.332512 447.090611,168.320667 L444.572,168.32 L444.572,175.884 L446.573,175.884 C449.193,175.884 449.604,175.855 449.781,174.618 L449.781,174.618 L449.928,173.588 L450.693,173.588 L450.693,179.446 L449.928,179.446 L449.781,178.503 C449.5878,177.295267 449.19076,177.214751 447.153244,177.209383 L444.572,177.209 L444.572,185.067 C445.542,185.303 446.543,185.508 447.544,185.508 C451.959,185.508 452.282,183.242 452.871,181.034 L452.871,181.034 L453.93,181.241 C453.783,183.3 453.548,184.832 452.96,186.627 L452.96,186.627 L438.655,186.627 L438.655,185.862 L439.362,185.773 C440.635816,185.528921 440.73638,185.585154 440.744319,182.995956 L440.744975,182.52563 L440.744975,182.52563 L440.745,182.27 L440.745,171.558 C440.745,171.470474 440.745,171.385352 440.744975,171.302565 L440.744319,170.833261 C440.73638,168.252275 440.635816,168.353421 439.362,168.055 L439.362,168.055 L438.655,167.967 L438.655,167.202 Z M361.908638,163.702701 C366.130996,163.729718 370.962,164.558828 370.962,169.85 C370.962,175.721 365.265,177.214 361.618,177.318 L361.618,177.318 L361.618,175.999 C364.188,175.651 366.446,174.54 366.446,170.337 C366.446,166.689 364.049,165.022 361.133,165.022 C360.542,165.022 359.985,165.126 359.431,165.265 L359.431,165.265 L359.431503,182.040553 C359.438909,185.009393 359.55,185.455105 361.098,185.619 L361.098,185.619 L362.417,185.723 L362.417,186.627 L352.449,186.627 L352.449,185.723 L353.282,185.619 C354.786079,185.459658 354.904822,185.033938 354.914196,182.282164 L354.91413,168.07049 C354.904264,165.356571 354.782595,164.901135 353.282,164.71 L353.282,164.71 L352.449,164.605 L352.449,163.702 Z M565.519,166.848 L571.758,183.448 C572.229,184.714 572.583,185.479 573.613,185.714 L573.613,185.714 L574.349,185.862 L574.349,186.627 L566.019,186.627 L566.019,185.862 L567.196,185.685 C567.785,185.597 568.196,185.421 568.196,185.008 C568.196,184.714 568.109,184.42 567.962,184.007 L567.962,184.007 L566.343,179.563 C565.695,179.328 564.282,179.21 563.399,179.21 C562.693,179.21 561.193,179.328 560.633,179.593 L560.633,179.593 L559.485,182.801 C559.161,183.713 558.896,184.685 558.896,184.89 C558.896,185.332 559.161,185.479 559.661,185.568 L559.661,185.568 L561.251,185.862 L561.251,186.627 L554.805,186.627 L554.805,185.862 L555.541,185.685 C556.218,185.479 556.63,185.126 557.455,183.095 L557.455,183.095 L563.753,167.202 C564.489,166.966 564.93,166.908 565.519,166.848 L565.519,166.848 Z M383.602823,167.202341 C386.313416,167.214635 390.393,167.583189 390.393,172.117 C390.393,174.707 388.303,176.384 386.626,177.149 C387.067,178.15 389.216,182.388 391.334,185.067 C391.865,185.744 392.688,185.803 393.219,185.862 L393.219,185.862 L393.219,186.627 L390.658,186.627 C387.685,186.627 386.537,184.743 385.89,183.448 L385.89,183.448 L384.771,181.27 C383.742,179.299 383.682,178.209 381.829,178.209 L381.829,178.209 L380.886,178.209 L380.886,182.301 C380.886,185.214 380.886,185.568 382.27,185.773 L382.27,185.773 L382.976,185.862 L382.976,186.627 L374.971,186.627 L374.971,185.862 L375.677,185.773 C376.977121,185.580424 377.055916,185.256362 377.060692,182.777276 L377.060029,170.802799 C377.049991,168.504634 376.936235,168.242824 375.647,168.055 L375.647,168.055 L374.971,167.967 L374.971,167.202 Z M684.66095,167.202249 C688.803973,167.215499 695.803,167.789974 695.803,176.797 L695.803,176.797 L695.802027,176.932194 C695.770757,179.102387 694.908398,186.627 682.323,186.627 L682.323,186.627 L675.289,186.627 L675.289,185.862 L675.995,185.773 C677.256882,185.586088 677.368225,185.324358 677.378049,183.003461 L677.378199,170.832627 C677.369389,168.392944 677.263667,168.297917 675.995,168.055 L675.995,168.055 L675.289,167.967 L675.289,167.202 Z M433.658,167.202 C433.894,168.703 433.982,170.41 433.982,171.97 L433.982,171.97 L432.922,172.087 C432.305,169.321 432.157,168.32 428.331,168.32 L428.331,168.32 L426.006,168.32 L426.006,176.502 L428.302,176.502 C430.598,176.502 431.187,176.502 431.392,175.236 L431.392,175.236 L431.569,174.207 L432.334,174.207 L432.334,180.122 L431.569,180.122 L431.422,179.004 C431.203786,177.911071 430.553587,177.833005 428.764424,177.827429 L426.006,177.827 L426.006817,183.026317 C426.015806,185.465535 426.123667,185.556667 427.418,185.773 L427.418,185.773 L428.096,185.862 L428.096,186.627 L420.09,186.627 L420.09,185.862 L420.767,185.773 C422.065432,185.61127 422.170711,185.547492 422.179247,183.027251 L422.179972,182.556484 L422.179972,182.556484 L422.18,182.301 L422.18,171.529 C422.18,171.440686 422.18,171.354775 422.179968,171.271196 L422.179129,170.79715 C422.169839,168.412146 422.061457,168.270771 420.797,168.055 L420.797,168.055 L420.09,167.967 L420.09,167.202 Z M726.861,167.202 C727.213,168.703 727.213,170.469 727.213,171.97 L727.213,171.97 L726.154,172.117 C725.423,168.545133 724.503904,168.332512 721.726738,168.320667 L719.209,168.32 L719.209,175.884 L721.209,175.884 C723.829,175.884 724.241,175.855 724.418,174.618 L724.418,174.618 L724.565,173.588 L725.33,173.588 L725.33,179.446 L724.565,179.446 L724.418,178.503 C724.2248,177.295267 723.82776,177.214751 721.789431,177.209383 L719.209,177.209 L719.209,185.067 C720.179,185.303 721.18,185.508 722.181,185.508 C726.595,185.508 726.919,183.242 727.508,181.034 L727.508,181.034 L728.567,181.241 C728.42,183.3 728.185,184.832 727.596,186.627 L727.596,186.627 L713.292,186.627 L713.292,185.862 L713.999,185.773 C715.272816,185.528921 715.37338,185.585154 715.381319,182.995956 L715.381975,182.52563 L715.381975,182.52563 L715.382,182.27 L715.382,171.558 C715.382,171.470474 715.382,171.385352 715.381975,171.302565 L715.381319,170.833261 C715.37338,168.252275 715.272816,168.353421 713.999,168.055 L713.999,168.055 L713.292,167.967 L713.292,167.202 Z M289.018,167.202 L289.018,167.967 L288.311,168.055 C287.011818,168.248515 286.93308,168.571752 286.928308,170.976955 L286.928,185.096 C287.812,185.303 288.724,185.508 289.636,185.508 C293.786,185.508 293.815,183.507 294.669,181.064 L294.669,181.064 L295.729,181.27 C295.552,183.184 295.347,184.743 294.698,186.627 L294.698,186.627 L281.013,186.627 L281.013,185.862 L281.719,185.773 C282.993737,185.528921 283.094374,185.609756 283.102319,183.001783 L283.102692,170.976955 C283.097916,168.571752 283.019121,168.248515 281.719,168.055 L281.719,168.055 L281.013,167.967 L281.013,167.202 L289.018,167.202 Z M213.948,167.202 L213.948,167.967 L213.241,168.055 C211.941818,168.248515 211.86308,168.571752 211.858308,171.026694 L211.858,175.825 L220.746,175.825 L220.745692,171.050734 C220.74092,168.571752 220.662182,168.248515 219.363,168.055 L219.363,168.055 L218.656,167.967 L218.656,167.202 L226.662,167.202 L226.662,167.967 L225.985,168.055 C224.696676,168.242824 224.583001,168.55285 224.572971,170.837543 L224.572971,182.990478 C224.583001,185.275311 224.696676,185.586088 225.985,185.773 L225.985,185.773 L226.662,185.862 L226.662,186.627 L218.656,186.627 L218.656,185.862 L219.363,185.773 C220.662182,185.580424 220.74092,185.256362 220.745692,182.777276 L220.746,177.149 L211.858,177.149 L211.858308,182.802975 C211.86308,185.256362 211.941818,185.580424 213.241,185.773 L213.241,185.773 L213.948,185.862 L213.948,186.627 L205.942,186.627 L205.942,185.862 L206.648,185.773 C207.947182,185.580424 208.02592,185.256362 208.030692,182.802975 L208.030692,171.050734 C208.02592,168.571752 207.947182,168.248515 206.648,168.055 L206.648,168.055 L205.942,167.967 L205.942,167.202 L213.948,167.202 Z M586.538,167.202 L586.538,167.967 L585.832,168.055 C584.448,168.261 584.448,168.614 584.448,171.469 L584.448,171.469 L584.448,185.096 C585.331,185.303 586.244,185.508 587.157,185.508 C591.306,185.508 591.335,183.507 592.189,181.064 L592.189,181.064 L593.249,181.27 C593.072,183.184 592.867,184.743 592.218,186.627 L592.218,186.627 L578.533,186.627 L578.533,185.862 L579.24,185.773 C580.513816,185.528921 580.61438,185.609756 580.622319,183.001783 L580.622692,170.976955 C580.61792,168.571752 580.539182,168.248515 579.24,168.055 L579.24,168.055 L578.533,167.967 L578.533,167.202 L586.538,167.202 Z M646.19,167.202 C646.308,167.849 646.572,171.793 646.572,172.264 L646.572,172.264 L645.512,172.264 C644.747,169.085 644.423,168.32 641.098,168.32 L641.098,168.32 L639.921,168.32 L639.921,182.359 C639.921,185.361 639.921,185.479 641.834,185.773 L641.834,185.773 L642.539,185.862 L642.539,186.627 L633.475,186.627 L633.475,185.862 L634.182,185.773 C635.990649,185.494892 636.088413,185.374271 636.093698,182.821014 L636.094,168.32 L634.917,168.32 C631.591,168.32 631.267,169.085 630.502,172.264 L630.502,172.264 L629.443,172.264 C629.443,172.0285 629.50925,170.92475 629.590125,169.799 L629.628302,169.280942 C629.699509,168.339605 629.7755,167.475731 629.825,167.202 L629.825,167.202 Z M503.391,167.202 L503.391,167.967 L502.686,168.055 C501.385879,168.248515 501.307084,168.571752 501.302308,171.026694 L501.302308,182.802975 C501.307084,185.256362 501.385879,185.580424 502.686,185.773 L502.686,185.773 L503.391,185.862 L503.391,186.627 L495.387,186.627 L495.387,185.862 L496.093,185.773 C497.476,185.568 497.476,185.214 497.476,182.301 L497.476,182.301 L497.476,171.558 C497.476,168.614 497.476,168.261 496.093,168.055 L496.093,168.055 L495.387,167.967 L495.387,167.202 L503.391,167.202 Z M708.234,167.202 L708.234,167.967 L707.528,168.055 C706.228818,168.248515 706.15008,168.571752 706.145308,171.026694 L706.145308,182.802975 C706.15008,185.256362 706.228818,185.580424 707.528,185.773 L707.528,185.773 L708.234,185.862 L708.234,186.627 L700.228,186.627 L700.228,185.862 L700.935,185.773 C702.318,185.568 702.318,185.214 702.318,182.301 L702.318,182.301 L702.318,171.558 C702.318,168.614 702.318,168.261 700.935,168.055 L700.935,168.055 L700.228,167.967 L700.228,167.202 L708.234,167.202 Z M518.436,167.878 C514.344,167.878 512.49,171.911 512.49,176.59 C512.49,181.447 514.257,185.95 518.789,185.95 C522.91,185.95 524.763,181.918 524.763,177.238 C524.763,172.381 522.997,167.878 518.436,167.878 Z M264.859,167.878 C260.768,167.878 258.914,171.911 258.914,176.59 C258.914,181.447 260.679,185.95 265.213,185.95 C269.333,185.95 271.187,181.918 271.187,177.238 C271.187,172.381 269.421,167.878 264.859,167.878 Z M405.685,167.878 C401.594,167.878 399.74,171.911 399.74,176.59 C399.74,181.447 401.506,185.95 406.038,185.95 C410.159,185.95 412.013,181.918 412.013,177.238 C412.013,172.381 410.247,167.878 405.685,167.878 Z M240.345,167.878 C236.254,167.878 234.399,171.911 234.399,176.59 C234.399,181.447 236.165,185.95 240.698,185.95 C244.818,185.95 246.673,181.918 246.673,177.238 C246.673,172.381 244.907,167.878 240.345,167.878 Z M318.704,172.871 C316.305,172.871 314.897,178.021 314.897,181.636 C314.897,183.811 315.378,185.827 317.009,185.827 C319.633,185.827 320.88,180.197 320.88,176.806 C320.88,174.054 320.496,172.871 318.704,172.871 Z M683.618,168.32 C682.794,168.32 682,168.438 681.205,168.585 L681.205,168.585 L681.205,185.037 C682.147,185.303 683.117,185.508 684.089,185.508 C688.798,185.508 691.505,182.27 691.505,176.767 C691.505,171.028 688.445,168.32 683.618,168.32 Z M563.645,171.469 L563.585,171.469 L561.201,178.268 C561.937,178.15 562.967,178.092 563.616,178.092 C564.234,178.092 565.264,178.15 566.087,178.239 L566.087,178.239 L563.645,171.469 Z M382.417,168.32 C381.887,168.32 381.387,168.379 380.886,168.527 L380.886,168.527 L380.886,177.091 L382.328,177.091 C386.479,177.091 386.566,173.824 386.566,172.559 C386.566,169.85 384.771,168.32 382.417,168.32 Z M750.651,138.185 L750.651,140.113 L151.838,140.113 L151.838,138.185 L750.651,138.185 Z M61.899,0 C92.16591,0 121.90968,6.426347 123.667066,6.81192782 L123.739836,6.82796466 C123.745935,6.829317 123.749,6.83 123.749,6.83 L123.749974,9.0708315 C123.749995,9.12642347 123.750016,9.18305952 123.750037,9.24074074 L123.750929,12.0225816 C123.750952,12.1076198 123.750976,12.1937173 123.751,12.280875 L123.751963,16.5679259 C123.751984,16.6849841 123.752005,16.8031178 123.752026,16.9223279 L123.752998,28.4229232 C123.752999,28.5988438 123.753,28.775869 123.753,28.954 C123.753,77.223 97.459,110.974 61.876,123.55 C26.293,110.974 2.84217094e-14,77.223 2.84217094e-14,28.954 L2.84217094e-14,6.83 L2.84217094e-14,6.83 C2.84217094e-14,6.83 30.695,0 61.899,0 Z M61.901,47.92 L61.876,114.9 C68.143,112.441 74.013,109.267 79.401,105.451 C79.351,100.596 78.974,95.686 78.239,90.739 C75.877,74.867 70.137,60.369 61.901,47.92 Z M171.408,91.249 L171.408,92.246 C169.220683,92.4294146 168.926525,92.6394801 168.913477,95.7771409 L168.913,102.439 C168.913,107.333 170.503,109.979 173.9,109.979 C177.58,109.979 179.291,107.208 179.291,101.846 L179.291,99.791 C179.291,96.516 179.104,94.803 178.979,93.835 C178.825,92.745 178.047,92.338 175.986,92.246 L175.986,91.249 L183.718,91.249 L183.718,92.246 C182.163,92.311 181.411,92.745 181.258,93.835 C181.13763,94.7671481 180.959767,96.3901331 180.946757,99.4334976 L180.946,102.065 C180.946,105.059 180.475,107.832 178.734,109.669 C177.361,111.139 175.115,111.979 172.934,111.979 C170.877,111.979 168.757,111.574 167.233,110.291 C165.58,108.954 164.86,106.708 164.86,103.061 L164.86,96.018 C164.86,92.65 164.614,92.434 162.243,92.246 L162.243,91.249 L171.408,91.249 Z M412.405,90.47 C414.743,90.47 416.146,90.969 417.3,91.621 C417.551,93.151 417.642,94.803 417.642,96.393 L416.522,96.393 C416.118,94.803 415.522,91.654 412.127,91.654 C410.347,91.654 409.007,92.84 409.007,94.773 C409.007,99.57 418.982,99.26 418.982,105.931 C418.982,110.359 415.054,111.979 411.314,111.979 C408.602,111.979 406.83,111.261 405.831,110.731 C405.082,108.764 404.926,107.364 404.926,104.872 L406.39,104.557 C406.83,106.428 407.855,110.793 411.841,110.793 C413.807,110.793 415.117,109.422 415.117,107.333 C415.117,102.065 405.454,102.471 405.454,96.079 C405.454,92.123 408.388,90.47 412.405,90.47 Z M291.782,90.936 L291.782,91.749 L290.442,91.967 C289.786,92.092 289.256,92.246 289.256,92.81 C289.256,93.088 289.537,93.869 289.663,94.179 L294.305,106.93 L294.37,106.93 L298.637,94.897 C298.983,93.963 299.198,93.117 299.198,92.81 C299.198,92.246 298.764,92.06 298.014,91.967 L296.673,91.749 L296.673,90.936 L303.874,90.936 L303.874,91.749 L303.161,91.932 C301.881,92.277 301.226,93.995 300.072,96.86 L294.214,111.508 C293.465,111.789 293.06,111.821 292.249,111.886 L285.361,94.459 C284.768,92.964 284.708,92.372 283.462,91.967 L282.683,91.749 L282.683,90.936 L291.782,90.936 Z M209.808,90.72 L223.768,105.709 L223.768,97.327 C223.768,92.246 223.523,92.03 221.871,91.841 L220.963,91.749 L220.963,90.936 L227.946,90.936 L227.946,91.749 L227.012,91.872 C225.743825,92.0459 225.648712,93.0471894 225.641578,96.4508598 L225.641,111.508 C225.298,111.605 224.424,111.758 224.019,111.758 L210.151,96.955 L210.151,105.244 C210.151,110.137 210.402,110.359 212.049,110.603 L212.953,110.699 L212.953,111.508 L205.977,111.508 L205.977,110.699 L206.91,110.575 C208.178175,110.4011 208.273288,109.399811 208.280422,105.997723 L208.281,90.936 C208.624,90.841 209.587,90.72 209.808,90.72 Z M522.272,90.936 L522.272,91.749 L520.753,92.001 C520.249,92.092 519.815,92.184 519.815,92.589 C519.815,92.84 520.156,93.712 520.655,94.773 L524.18,101.693 L527.581,94.553 C527.948,93.712 528.229,92.902 528.229,92.589 C528.229,92.155 527.855,92.06 527.235,91.967 L525.77,91.749 L525.77,90.936 L532.935,90.936 L532.935,91.749 L532.002,91.902 C531.444,92.03 530.977,92.434 529.977,93.995 L527.112,99.041 C525.331586,102.382655 525.154597,103.309851 525.144508,106.510194 L525.144963,109.02911 C525.155078,109.808119 525.271391,110.343957 526.609,110.543 L527.855,110.699 L527.855,111.508 L518.384,111.508 L518.384,110.699 L519.63,110.543 C521.095,110.325 521.095,109.703 521.095,108.8 L521.095,106.862 C521.095,103.594 520.753,102.749 519.594,100.631 L515.202,92.62 C514.95,92.184 514.674,92.06 513.987,91.902 L513.298,91.749 L513.298,90.936 L522.272,90.936 Z M260.274,90.936 L260.274,91.749 L259.522,91.841 C258.181657,92.0412286 258.066771,92.3710245 258.056923,94.7830931 L258.056923,107.664669 C258.066771,110.075953 258.181657,110.405514 259.522,110.603 L260.274,110.699 L260.274,111.508 L251.792,111.508 L251.792,110.699 L252.542,110.603 C253.875943,110.405514 253.990281,110.075953 254.000081,107.664669 L254.000966,107.187682 C254.001,107.10396 254.001,107.018086 254.001,106.93 L254.001,95.552 L254.000966,95.2914025 L254.000966,95.2914025 L254.000081,94.8090782 C253.990281,92.3710245 253.875943,92.0412286 252.542,91.841 L251.792,91.749 L251.792,90.936 L260.274,90.936 Z M380.301,96.141 C380.301,98.884 378.09,100.66 376.316,101.472 C376.779,102.533 379.055,107.021 381.298,109.856 C381.86,110.575 382.736,110.637 383.293,110.699 L383.293,111.508 L380.58,111.508 C377.437,111.508 376.217,109.513 375.533,108.145 L374.349,105.84 C373.261,103.745 373.194,102.593 371.229,102.593 L370.237,102.593 L370.23792,107.664669 C370.247734,110.075953 370.362229,110.405514 371.698,110.603 L372.447,110.699 L372.447,111.508 L363.971,111.508 L363.971,110.699 L364.715,110.603 C366.056257,110.405514 366.171222,110.075953 366.181076,107.636391 L366.181966,107.153764 C366.182,107.069044 366.182,106.982143 366.182,106.893 L366.182,95.518 L366.181965,95.2552193 L366.181965,95.2552193 L366.181059,94.7697661 C366.171016,92.3191976 366.053857,92.0412286 364.687,91.841 L363.971,91.749 L363.971,90.936 L372.944,90.936 C375.811,90.936 380.301,91.249 380.301,96.141 Z M451.679,90.936 L451.679,91.749 L450.932,91.841 C449.590743,92.0412286 449.475778,92.3710245 449.465924,94.7830931 L449.465924,107.664669 C449.475778,110.075953 449.590743,110.405514 450.932,110.603 L451.679,110.699 L451.679,111.508 L443.199,111.508 L443.199,110.699 L443.949,110.603 C445.2866,110.405514 445.401251,110.075953 445.411079,107.664669 L445.411966,107.187682 C445.412,107.10396 445.412,107.018086 445.412,106.93 L445.412,95.552 L445.411966,95.2914025 L445.411966,95.2914025 L445.411079,94.8090782 C445.401251,92.3710245 445.2866,92.0412286 443.949,91.841 L443.199,91.749 L443.199,90.936 L451.679,90.936 Z M339.126,90.936 C339.5,92.529 339.5,94.4 339.5,95.988 L338.376,96.141 C337.602174,92.3560435 336.629807,92.1356692 333.681462,92.1236611 L331.023,92.123 L331.023,100.134 L333.145,100.134 C335.918,100.134 336.352,100.1 336.541,98.79 L336.696,97.699 L337.505,97.699 L337.505,103.904 L336.696,103.904 L336.541,102.908 C336.336129,101.625452 335.912476,101.542707 333.741583,101.537368 L331.023,101.537 L331.023,109.856 C332.052,110.106 333.112,110.325 334.172,110.325 C338.554813,110.325 339.131082,108.213867 339.69686,106.025171 L339.772568,105.733064 C339.785286,105.684362 339.798083,105.635667 339.811,105.587 L340.934,105.808 C340.783,107.989 340.529,109.607 339.905,111.508 L324.757,111.508 L324.757,110.699 L325.509,110.603 C326.860425,110.34585 326.961782,110.408704 326.969384,107.627332 L326.969977,107.150867 C326.97,107.067135 326.97,106.9812 326.97,106.893 L326.97,95.552 L326.969977,95.2946773 L326.969977,95.2946773 L326.969384,94.819822 C326.961782,92.0503044 326.860425,92.158275 325.509,91.841 L324.757,91.749 L324.757,90.936 L339.126,90.936 Z M492.078,90.936 C492.199,91.621 492.483,95.801 492.483,96.3 L491.36,96.3 C490.549,92.934 490.206,92.123 486.678,92.123 L485.435,92.123 L485.435924,107.6724 C485.447006,110.188893 485.591077,110.315 487.464,110.603 L488.213,110.699 L488.213,111.508 L478.613,111.508 L478.613,110.699 L479.356,110.603 C481.230769,110.315 481.374982,110.188893 481.386076,107.6724 L481.386966,107.230414 C481.387,107.152915 481.387,107.073462 481.387,106.992 L481.387,92.123 L480.134,92.123 C476.613,92.123 476.277,92.934 475.46,96.3 L474.338,96.3 C474.338,95.801 474.621,91.621 474.75,90.936 L492.078,90.936 Z M33.611,9.758 C28.561,10.305 23.858,10.932 19.695,11.555 C34.095,18.171 46.862,28.262 56.861,40.951 C49.993,50.764 44.694,61.68 41.197,73.273 C36.815,58.133 28.293,44.505 16.554,34.116 C13.865,31.736 11.042,29.557 8.107,27.582 L8.107,28.954 C8.107,31.973 8.224,34.952 8.447,37.888 C22.547,49.188 32.676,65.908 35.6,85.562 C36.276,90.103 36.535,94.609 36.412,99.035 L36.528,99.139 L36.528,99.139 C38.941,101.345 41.483,103.403 44.144,105.3 C44.23,105.362 44.315,105.425 44.402,105.487 C44.451,100.619 44.827,95.698 45.565,90.739 C47.927,74.867 53.667,60.369 61.901,47.92 L61.902,34.292 C58.167,29.724 54.067,25.445 49.624,21.514 C44.606,17.072 39.241,13.146 33.611,9.758 Z M371.854,92.123 C371.289,92.123 370.764,92.184 370.237,92.338 L370.237,101.412 L371.763,101.412 C376.158,101.412 376.251,97.951 376.251,96.611 C376.251,93.743 374.349,92.123 371.854,92.123 Z M115.304,37.93 C101.232,49.23 91.125,65.934 88.204,85.562 C87.53,90.089 87.272,94.578 87.391,98.991 C91.895,94.848 95.947,90.185 99.476,85.047 C108.548,71.841 113.948,55.693 115.304,37.93 Z M104.101,11.559 C89.705,18.174 76.94,28.264 66.943,40.951 C73.812,50.764 79.11,61.68 82.607,73.273 C86.988,58.135 95.511,44.506 107.25,34.116 C109.924,31.75 112.729,29.582 115.646,27.617 L115.645996,26.9736586 L115.645996,26.9736586 L115.645026,17.6145135 C115.644995,17.4599984 115.644963,17.3071768 115.644931,17.1560468 L115.644,13.485 L115.644,13.485 C112.645,12.93 108.705,12.248 104.101,11.559 Z M169.387,14.074 L169.387,15.862 L166.871,16.104 C165.574,16.267 162.816,16.509 162.816,18.132 C162.816,18.783 163.792,21.864 164.197,23.082 L174.741,56.507 L174.903,56.507 L188.454,16.346 C189.266,15.942 189.75,15.696 190.804,15.458 L205.981,56.507 L206.14,56.507 C206.839464,54.2276186 209.124106,46.9377646 211.411905,39.2963297 L211.723749,38.2525741 C214.372059,29.3695668 216.928,20.2987216 216.928,18.295 C216.928,16.917 215.469,16.588 214.009,16.346 L210.359,15.862 L210.359,14.074 L227.399,14.074 L227.399,15.862 L225.29,16.346 C224.396,16.588 223.505,16.917 222.855,17.564 C221.473,18.945 216.039,36.144 214.904,39.629 L210.194,54.235 C208.091,60.812 206.548,66.245 206.06,67.705 C204.841,68.355 204.517,68.518 203.14,68.839 L188.129,28.357 C187.173042,30.8532632 184.52297,38.2540372 181.772679,46.0141044 L181.388428,47.098779 C181.260234,47.4608095 181.131984,47.82316 181.003838,48.1853731 L180.619871,49.2711428 L180.619871,49.2711428 L180.237491,50.3533439 C177.441535,58.2696936 174.851137,65.6768316 174.174,67.705 C173.526,68.273 172.631,68.518 171.497,68.839 L156.488,23.57 C156.400538,23.32 156.312112,23.065716 156.222244,22.8091761 L156.04044,22.2936897 C154.997713,19.3623669 153.728692,16.3149744 151.537,16.104 L149.185,15.862 L149.185,14.074 L169.387,14.074 Z M442.272,20.88 C455.013,20.88 465.746,28.982 465.746,44.354 C465.746,59.59 454.663,68.662 440.952,68.662 C427.243,68.662 417.338,60.074 417.338,45.118 C417.338,30.16 428.902,20.88 442.272,20.88 Z M571.423,20.88 C575.717,20.88 579.176,21.983 580.979,23.094 C581.533,25.31 581.673,30.92 581.673,32.651 L579.943,32.651 C579.25,29.189 578.14,23.164 570.312,23.164 C566.303,23.164 562.762,26.075 562.762,30.711 C562.762,34.797 565.742,37.013 569.477,39.231 L573.294,41.376 C573.558726,41.526871 573.823941,41.6772503 574.088978,41.8277739 L574.618618,42.129202 C579.644188,44.9981779 584.445,48.0723226 584.445,55.714 C584.445,65.061 575.786,68.662 568.442,68.662 C563.043,68.662 559.713,67.209 557.575,65.89 C556.328,63.189 555.353,58.068 555.353,53.704 L557.575,53.149 C558.334,58.137 560.898,66.376 570.381,66.376 C575.164,66.376 578.692,63.261 578.692,57.86 C578.692,52.805 574.472,49.34 569.068,46.918 L564.633,44.494 C560.689,42.348 557.022,38.054 557.022,32.859 C557.022,24.413 564.081,20.88 571.423,20.88 Z M627.24,21.916 C627.516,23.441 628,26.694 628,29.881 C628,30.78 627.86,32.651 627.86,32.929 L626.205,32.929 C624.694767,24.9913837 624.546305,23.8821544 615.112819,23.8574316 L611.17,23.857 L611.17079,58.22699 C611.183433,65.3101246 611.398353,65.6292941 615.052,65.89 L617.544,66.102 L617.544,67.624 L598.357,67.624 L598.357,66.102 L600.92,65.89 C604.505882,65.6292941 604.716817,65.3101246 604.729225,58.22699 L604.729988,57.1856469 C604.73,57.0648346 604.73,56.9422941 604.73,56.818 L604.73,23.857 L601.128,23.857 C591.371,23.857 591.229,24.898 589.702,32.929 L588.045,32.929 C588.045,32.651 587.904,30.78 587.904,29.881 C587.904,26.694 588.391,23.441 588.665,21.916 L627.24,21.916 Z M347.694,21.916 C347.974,23.441 348.46,26.075 348.46,29.258 C348.46,30.854 348.32,31.406 348.32,32.027 L346.657,32.305 C345.155313,24.987241 344.998622,23.8830084 335.579745,23.8574626 L329.484,23.857 L329.484,42.901 L335.647,42.901 C341.048,42.901 342.297,42.832 342.711,39.992 L343.057,37.636 L344.857,37.636 L344.857,50.105 L343.057,50.105 L342.711,47.746 C342.297,44.909 341.048,44.838 335.647,44.838 L329.484,44.838 L329.484,64.786 C331.976,65.27 334.54,65.687 337.034,65.687 C348.044,65.687 348.737,61.527 350.123,55.852 L351.853,56.126 C351.645,60.559 350.743,63.816 349.565,67.624 L317.85,67.624 L317.85,66.102 L320.343,65.89 C322.879364,65.6297879 323.033083,65.3113333 323.042399,58.2671624 L323.042991,57.1966251 C323.043,57.0722596 323.043,56.9460606 323.043,56.818 L323.043,32.718 L323.042991,32.3396408 L323.042991,32.3396408 L323.042399,31.269821 C323.033083,24.2301892 322.879364,23.9080909 320.343,23.646 L317.85,23.441 L317.85,21.916 L347.694,21.916 Z M244.929,20.88 L260.375,60.976 C261.411,63.748 262.104,65.337 263.904,65.687 L266.674,66.102 L266.674,67.624 L249.499,67.624 L249.499,66.102 L252.615,65.547 C253.863,65.337 254.761,64.994 254.761,64.23 C254.761,63.748 254.485,63.261 254.345,62.777 L249.499,49.69 C246.94,49.203 244.378,48.998 241.813,48.998 C239.391,48.998 236.969,49.272 234.539,49.69 L231.011,59.313 C230.178,61.527 229.625,63.399 229.625,63.953 C229.625,65.27 230.524,65.479 231.288,65.547 L235.44,66.102 L235.44,67.624 L220.897,67.624 L220.897,66.102 L222.212,65.89 C224.848,65.479 225.191,64.718 226.854,60.701 L241.256,25.659 C241.813,24.272 242.365,22.887 242.918,21.573 L244.929,20.88 Z M545.175,21.916 C545.454,23.441 545.938,26.075 545.938,29.258 C545.938,30.854 545.802,31.406 545.802,32.027 L544.14,32.305 C542.632386,24.987241 542.481479,23.8830084 533.062742,23.8574626 L526.967,23.857 L526.967,42.901 L533.125,42.901 C538.528,42.901 539.774,42.832 540.191,39.992 L540.539,37.636 L542.337,37.636 L542.337,50.105 L540.539,50.105 L540.191,47.746 C539.774,44.909 538.528,44.838 533.125,44.838 L526.967,44.838 L526.967,64.786 C529.457,65.27 532.022,65.687 534.51,65.687 C545.252439,65.687 546.173105,61.7274521 547.498664,56.2645018 L547.599,55.852 L547.599,55.852 L549.335,56.126 C549.119,60.559 548.219,63.816 547.048,67.624 L515.33,67.624 L515.33,66.102 L517.82,65.89 C520.362,65.6297879 520.516061,65.3113333 520.525398,58.2671624 L520.525398,31.269821 C520.516061,24.2301892 520.362,23.9080909 517.82,23.646 L515.33,23.441 L515.33,21.916 L545.175,21.916 Z M489.085,21.916 C495.659,21.916 504.944,22.887 504.944,33.412 C504.944,39.854 499.192,43.661 495.383,45.463 C496.06569,46.7333793 497.28108,49.0747396 498.565979,51.4726722 L498.973507,52.2306114 C499.518517,53.2405493 500.067207,54.2415862 500.585,55.158 C503.485,60.354 506.534,64.44 508.264,65.41 C508.956,65.825 510.202,66.102 511.729,66.102 L511.729,67.624 L506.401,67.624 C501.822,67.624 498.64,64.509 496.559,60.701 L493.796,55.367 C491.991,51.971 490.401,49.34 489.5,48.58 C488.455294,47.732 486.86227,47.6821176 485.467928,47.6791834 L482.643,47.679 L482.643585,58.2671624 C482.65266,65.3113333 482.802394,65.6297879 485.273,65.89 L487.766,66.102 L487.766,67.624 L471.006,67.624 L471.006,66.102 L473.504,65.89 C476.038485,65.6297879 476.19209,65.3113333 476.201399,58.2671624 L476.201991,57.1966251 C476.202,57.0722596 476.202,56.9460606 476.202,56.818 L476.202,32.718 L476.201991,32.3396408 L476.201991,32.3396408 L476.201399,31.269821 C476.19209,24.2301892 476.038485,23.9080909 473.504,23.646 L471.006,23.441 L471.006,21.916 L489.085,21.916 Z M287.658,21.916 L287.658,23.441 L285.163,23.646 C282.626636,23.9080909 282.472917,24.2301892 282.463601,31.269821 L282.463,43.175 L283.706,43.175 C287.173,43.175 288.35,41.863 294.792,33.552 L299.36,27.665 C301.231,25.31 301.231,24.898 301.231,24.48 C301.231,23.719 300.471,23.719 298.809,23.579 L296.244,23.441 L296.244,21.916 L311.824,21.916 L311.824,23.441 L310.232,23.579 C308.641,23.719 308.016,24.063 306.77,24.964 C304.276,26.766 296.035,36.184 294.858,37.636 L291.535,41.863 C293.27,44.838 297.836,51.763 300.747,55.78 C308.224,65.613 308.156,66.102 311.824,66.102 L311.824,67.624 L307.532,67.624 C304.206,67.624 301.925,67.003 299.987,64.852 C297.142,61.737 295.068,58.552 293.27,55.852 L288.007,48.025 C286.344,45.605 284.958,45.118 283.639,45.118 L282.463,45.118 L282.463601,58.2671624 C282.472917,65.3113333 282.626636,65.6297879 285.163,65.89 L287.658,66.102 L287.658,67.624 L270.826,67.624 L270.826,66.102 L273.323,65.89 C275.857485,65.6297879 276.01109,65.3113333 276.020399,58.2671624 L276.020991,57.1966251 C276.021,57.0722596 276.021,56.9460606 276.021,56.818 L276.021,32.718 L276.020991,32.3396408 L276.020991,32.3396408 L276.020399,31.269821 C276.01109,24.2301892 275.857485,23.9080909 273.323,23.646 L270.826,23.441 L270.826,21.916 L287.658,21.916 Z M414.295,14.074 C414.622,15.862 415.19,18.945 415.19,22.677 C415.19,24.543 415.025,25.192 415.025,25.921 L413.074,26.247 C411.313348,17.6583804 411.132778,16.3733602 400.059999,16.3464397 L392.146,16.346 L392.146,39.956 L400.177,39.956 C406.507,39.956 407.964,39.877 408.456,36.549 L408.862,33.791 L410.972,33.791 L410.972,48.397 L408.862,48.397 L408.456,45.638 C407.964,42.31 406.507,42.231 400.177,42.231 L392.146,42.231 L392.146602,56.4144354 C392.157734,64.9063281 392.374821,65.2866667 396.608,65.595 L399.527,65.838 L399.527,67.624 L378.517,67.624 L378.517,65.838 L381.438,65.595 C384.3892,65.2916667 384.585947,64.9186444 384.599063,56.8211896 L384.599993,55.3559583 C384.6,55.227312 384.6,55.097 384.6,54.965 L384.6,26.731 L384.599993,26.3402001 L384.599993,26.3402001 L384.599063,24.8755704 C384.585947,16.7814756 384.3892,16.4092 381.438,16.104 L378.517,15.862 L378.517,14.074 L414.295,14.074 Z M441.089,23.164 C430.705,23.164 424.609,31.822 424.609,43.802 C424.609,57.932 431.813,66.376 442.272,66.376 C454.041,66.376 458.477,56.265 458.477,46.157 C458.477,33.068 451.965,23.164 441.089,23.164 Z M242.021,30.296 L235.44,47.056 C237.52,46.918 239.667,46.708 241.745,46.708 C243.959,46.708 246.176,46.777 248.395,47.056 L242.021,30.296 Z M486.938,24.203 C485.483,24.203 484.03,24.48 482.643,24.756 L482.643,45.739 L486.587,45.739 C492.408,45.739 497.67,42.624 497.67,34.797 C497.67,26.694 492.334,24.203 486.938,24.203 Z M61.9,8.108 L61.902,34.292 C65.638,29.724 69.737,25.445 74.18,21.514 C79.198,17.073 84.561,13.147 90.19,9.759 C81.449,8.811 71.676,8.108 61.9,8.108 Z" id="Logo"></path>
		</g>
	</g>
</svg>